<?xml version="1.0" encoding="UTF-8"?>
<!DOCTYPE svg PUBLIC "-//W3C//DTD SVG 1.1//EN" "http://www.w3.org/Graphics/SVG/1.1/DTD/svg11.dtd">
<svg xmlns="http://www.w3.org/2000/svg" version="1.1" width="410px" height="310px" style="shape-rendering:geometricPrecision; text-rendering:geometricPrecision; image-rendering:optimizeQuality; fill-rule:evenodd; clip-rule:evenodd" xmlns:xlink="http://www.w3.org/1999/xlink">
<g><path style="opacity:1" fill="#6b696d" d="M -0.5,-0.5 C 39.5,-0.5 79.5,-0.5 119.5,-0.5C 118.763,1.30459 117.763,2.97125 116.5,4.5C 116.846,5.69559 117.346,5.69559 118,4.5C 118.617,5.44915 118.451,6.28248 117.5,7C 119.891,8.30863 119.891,9.30863 117.5,10C 118.667,11.1667 119.833,12.3333 121,13.5C 121.333,13.1667 121.667,12.8333 122,12.5C 122.483,13.448 122.649,14.448 122.5,15.5C 119.518,15.9629 116.518,16.2962 113.5,16.5C 113.5,15.5 113.5,14.5 113.5,13.5C 112.022,13.238 110.689,13.5713 109.5,14.5C 109.709,15.086 110.043,15.586 110.5,16C 108.998,16.5831 107.665,17.4164 106.5,18.5C 108.365,19.6662 110.032,19.3329 111.5,17.5C 114.26,18.7042 116.927,19.2042 119.5,19C 121.64,21.4963 121.64,23.8297 119.5,26C 122.138,27.7645 121.804,29.0978 118.5,30C 120.366,33.0543 123.033,34.5543 126.5,34.5C 126.351,35.552 126.517,36.552 127,37.5C 130.89,37.6938 134.724,36.6938 138.5,34.5C 139.202,36.4669 139.202,38.1335 138.5,39.5C 139.478,39.0233 140.311,38.3567 141,37.5C 142.268,37.6158 143.602,37.9491 145,38.5C 145.568,32.8059 147.568,31.8059 151,35.5C 150.923,34.2624 151.089,33.2624 151.5,32.5C 154.033,34.394 155.7,36.894 156.5,40C 153.332,40.5823 152.999,41.5823 155.5,43C 154.672,43.9147 153.672,44.5814 152.5,45C 152.833,46 153.167,47 153.5,48C 150.937,48.763 150.937,49.263 153.5,49.5C 155.122,47.146 156.622,47.146 158,49.5C 158.333,48.8333 158.667,48.1667 159,47.5C 159.903,48.7014 161.069,49.5348 162.5,50C 165.833,50.6667 169.167,50.6667 172.5,50C 173,49.5 173.5,49 174,48.5C 177.4,49.5396 180.9,50.2062 184.5,50.5C 184.67,49.1779 184.337,48.0113 183.5,47C 184.025,46.3076 184.692,45.8076 185.5,45.5C 185.833,46.1667 186.167,46.8333 186.5,47.5C 187.614,46.277 187.781,44.9437 187,43.5C 182.817,44.8789 182.483,44.2123 186,41.5C 187.992,42.2292 188.826,43.7292 188.5,46C 188.325,47.6581 187.658,48.9914 186.5,50C 194.08,51.3961 201.747,51.8961 209.5,51.5C 189.339,51.9725 169.006,51.9725 148.5,51.5C 148.5,49.1667 148.5,46.8333 148.5,44.5C 141.167,44.5 133.833,44.5 126.5,44.5C 126.5,46.8333 126.5,49.1667 126.5,51.5C 113.167,51.5 99.8333,51.5 86.5,51.5C 86.1667,51.5 85.8333,51.5 85.5,51.5C 84.7515,52.531 84.0848,53.6976 83.5,55C 84.4959,63.7179 84.8292,72.5513 84.5,81.5C 83.0222,81.238 81.6888,81.5713 80.5,82.5C 80.7093,83.086 81.0426,83.586 81.5,84C 80.2341,84.3095 79.0674,84.8095 78,85.5C 78.9989,82.4957 77.8323,81.329 74.5,82C 77,82.8333 77.1667,84 75,85.5C 73.4452,83.8542 71.7785,83.5209 70,84.5C 69.8333,84.1667 69.6667,83.8333 69.5,83.5C 72.7973,82.8576 73.1307,81.6909 70.5,80C 72.7015,79.2232 72.7015,78.0565 70.5,76.5C 69.5713,77.6888 69.238,79.0222 69.5,80.5C 64.9024,79.3805 60.2357,78.3805 55.5,77.5C 54.04,79.4224 52.3733,80.0891 50.5,79.5C 48.8433,77.4206 46.8433,77.254 44.5,79C 45.5348,80.5069 45.3681,82.0069 44,83.5C 39.6753,80.7463 37.5086,81.7463 37.5,86.5C 35.9818,84.4857 35.3151,82.4857 35.5,80.5C 36.7757,79.3554 38.109,79.3554 39.5,80.5C 39.9396,79.302 40.273,78.1353 40.5,77C 39.0039,76.4926 37.8373,76.9926 37,78.5C 34.4896,77.8913 32.4896,76.558 31,74.5C 28.4115,78.4152 26.5781,78.0819 25.5,73.5C 27.8568,73.6633 30.1902,73.4966 32.5,73C 31.2068,72.51 29.8734,72.3433 28.5,72.5C 28.33,71.1779 28.6634,70.0113 29.5,69C 28.4479,67.8808 27.2812,67.3808 26,67.5C 25.7476,69.378 25.0809,71.378 24,73.5C 22.2522,73.8348 20.4189,74.8348 18.5,76.5C 17.2048,74.6721 16.2048,72.6721 15.5,70.5C 13.6317,73.9804 11.7984,73.6471 10,69.5C 7.9336,72.2981 6.4336,71.9648 5.5,68.5C 6.16667,67.8333 6.83333,67.1667 7.5,66.5C 6.47058,66.7036 5.47058,66.2036 4.5,65C 5.28418,62.0021 6.95085,61.1688 9.5,62.5C 8.97473,63.1924 8.30806,63.6924 7.5,64C 11.7676,64.7168 12.4342,63.5501 9.5,60.5C 6.95746,57.8396 4.79079,58.1729 3,61.5C 2.18405,60.1772 1.01739,59.5106 -0.5,59.5C -0.5,39.5 -0.5,19.5 -0.5,-0.5 Z"/></g>
<g><path style="opacity:1" fill="#676569" d="M 119.5,-0.5 C 145.833,-0.5 172.167,-0.5 198.5,-0.5C 199.743,1.16388 201.41,2.33055 203.5,3C 202.376,3.24917 201.376,3.74917 200.5,4.5C 202.149,5.14756 203.482,6.14756 204.5,7.5C 203.975,8.19238 203.308,8.69238 202.5,9C 203.357,9.68909 204.023,10.5224 204.5,11.5C 202.838,12.3267 201.505,13.4933 200.5,15C 201.931,15.4652 203.097,16.2986 204,17.5C 205.085,16.7069 206.252,16.0402 207.5,15.5C 207.998,16.6034 208.331,17.6034 208.5,18.5C 210.421,16.5309 210.421,15.0309 208.5,14C 210.987,10.3851 213.154,10.2184 215,13.5C 215.561,12.9781 216.228,12.6448 217,12.5C 218.762,13.5909 220.596,14.5909 222.5,15.5C 221.625,17.7725 219.958,18.7725 217.5,18.5C 217.762,17.0222 217.429,15.6888 216.5,14.5C 215.833,16.5 215.167,18.5 214.5,20.5C 213.914,20.2907 213.414,19.9574 213,19.5C 211.2,21.317 209.034,22.4837 206.5,23C 205.687,24.3139 204.687,25.4805 203.5,26.5C 205.177,28.6759 207.011,30.6759 209,32.5C 209.583,30.9984 210.416,29.6651 211.5,28.5C 212.833,29.8333 214.167,29.8333 215.5,28.5C 216.333,30.5 217.167,32.5 218,34.5C 219.852,32.7703 219.686,31.6036 217.5,31C 219.246,30.5291 220.913,29.8624 222.5,29C 222.5,27 222.5,25 222.5,23C 223.5,22.3333 224.5,22.3333 225.5,23C 224.167,23.6667 224.167,24.3333 225.5,25C 224.692,25.3076 224.025,25.8076 223.5,26.5C 227.161,31.7034 229.495,31.37 230.5,25.5C 232.774,27.7127 234.274,30.3793 235,33.5C 236.96,31.1015 239.126,30.9348 241.5,33C 239.842,33.7253 239.342,34.892 240,36.5C 242.305,35.0612 244.138,35.5612 245.5,38C 243.888,38.7203 242.388,38.5536 241,37.5C 240.383,38.4491 240.549,39.2825 241.5,40C 249.124,40.8741 256.791,41.7074 264.5,42.5C 258.122,42.2946 251.789,42.6279 245.5,43.5C 245.768,46.1194 245.435,48.6194 244.5,51C 232.838,51.4999 221.171,51.6665 209.5,51.5C 201.747,51.8961 194.08,51.3961 186.5,50C 187.658,48.9914 188.325,47.6581 188.5,46C 188.826,43.7292 187.992,42.2292 186,41.5C 182.483,44.2123 182.817,44.8789 187,43.5C 187.781,44.9437 187.614,46.277 186.5,47.5C 186.167,46.8333 185.833,46.1667 185.5,45.5C 184.692,45.8076 184.025,46.3076 183.5,47C 184.337,48.0113 184.67,49.1779 184.5,50.5C 180.9,50.2062 177.4,49.5396 174,48.5C 173.5,49 173,49.5 172.5,50C 169.167,50.6667 165.833,50.6667 162.5,50C 161.069,49.5348 159.903,48.7014 159,47.5C 158.667,48.1667 158.333,48.8333 158,49.5C 156.622,47.146 155.122,47.146 153.5,49.5C 150.937,49.263 150.937,48.763 153.5,48C 153.167,47 152.833,46 152.5,45C 153.672,44.5814 154.672,43.9147 155.5,43C 152.999,41.5823 153.332,40.5823 156.5,40C 155.7,36.894 154.033,34.394 151.5,32.5C 151.089,33.2624 150.923,34.2624 151,35.5C 147.568,31.8059 145.568,32.8059 145,38.5C 143.602,37.9491 142.268,37.6158 141,37.5C 140.311,38.3567 139.478,39.0233 138.5,39.5C 139.202,38.1335 139.202,36.4669 138.5,34.5C 134.724,36.6938 130.89,37.6938 127,37.5C 126.517,36.552 126.351,35.552 126.5,34.5C 123.033,34.5543 120.366,33.0543 118.5,30C 121.804,29.0978 122.138,27.7645 119.5,26C 121.64,23.8297 121.64,21.4963 119.5,19C 116.927,19.2042 114.26,18.7042 111.5,17.5C 110.032,19.3329 108.365,19.6662 106.5,18.5C 107.665,17.4164 108.998,16.5831 110.5,16C 110.043,15.586 109.709,15.086 109.5,14.5C 110.689,13.5713 112.022,13.238 113.5,13.5C 113.5,14.5 113.5,15.5 113.5,16.5C 116.518,16.2962 119.518,15.9629 122.5,15.5C 122.649,14.448 122.483,13.448 122,12.5C 121.667,12.8333 121.333,13.1667 121,13.5C 119.833,12.3333 118.667,11.1667 117.5,10C 119.891,9.30863 119.891,8.30863 117.5,7C 118.451,6.28248 118.617,5.44915 118,4.5C 117.346,5.69559 116.846,5.69559 116.5,4.5C 117.763,2.97125 118.763,1.30459 119.5,-0.5 Z"/></g>
<g><path style="opacity:1" fill="#5a585b" d="M 347.5,-0.5 C 368.167,-0.5 388.833,-0.5 409.5,-0.5C 409.5,24.8333 409.5,50.1667 409.5,75.5C 408.078,75.2914 406.745,74.7914 405.5,74C 406.696,73.3457 406.696,72.8457 405.5,72.5C 403.866,72.968 402.7,73.968 402,75.5C 401.251,74.365 401.417,73.365 402.5,72.5C 404.225,71.9851 405.892,71.3184 407.5,70.5C 406.603,70.3309 405.603,69.9976 404.5,69.5C 405.77,67.4523 406.103,65.4523 405.5,63.5C 402.74,64.7042 400.073,65.2042 397.5,65C 398.891,66.02 400.391,66.8534 402,67.5C 402.749,68.635 402.583,69.635 401.5,70.5C 400.5,69.8333 399.5,69.1667 398.5,68.5C 397.808,69.0253 397.308,69.6919 397,70.5C 394.281,66.8071 392.115,63.3071 390.5,60C 391.536,58.3831 392.703,58.2164 394,59.5C 394.699,57.9262 394.365,56.5929 393,55.5C 392.107,56.7112 391.274,56.7112 390.5,55.5C 395.614,54.8287 396.28,53.162 392.5,50.5C 392.264,51.2472 391.93,52.0805 391.5,53C 390.062,53.2189 388.729,53.7189 387.5,54.5C 388.879,55.8626 388.713,56.8626 387,57.5C 386.055,57.0946 385.388,56.428 385,55.5C 384.667,55.8333 384.333,56.1667 384,56.5C 383.313,54.4325 383.48,52.4325 384.5,50.5C 383.96,49.2519 383.293,48.0852 382.5,47C 383.654,46.0862 383.487,45.2529 382,44.5C 381.717,47.7423 380.883,48.0756 379.5,45.5C 377.867,46.7442 376.867,46.2442 376.5,44C 379.341,41.9361 379.008,41.2694 375.5,42C 375.676,43.6597 375.009,45.3264 373.5,47C 369.84,48.1135 369.007,47.2802 371,44.5C 371.718,45.4506 372.551,45.6172 373.5,45C 372.862,43.2933 372.862,41.46 373.5,39.5C 370.795,39.3802 370.128,40.3802 371.5,42.5C 369.519,45.0605 367.852,44.7271 366.5,41.5C 367.128,39.7419 368.128,38.2419 369.5,37C 365.81,36.5756 365.643,35.7423 369,34.5C 369.667,32.5 369.667,30.5 369,28.5C 367.211,30.229 365.044,30.8957 362.5,30.5C 362.5,31.8333 362.5,33.1667 362.5,34.5C 357.579,34.8651 357.245,33.8651 361.5,31.5C 360.478,30.646 359.645,29.646 359,28.5C 357.933,29.1905 356.766,29.6905 355.5,30C 356.641,30.7412 356.641,31.5745 355.5,32.5C 354.335,33.5836 353.002,34.4169 351.5,35C 352.337,36.0113 352.67,37.1779 352.5,38.5C 353.552,38.3505 354.552,38.5172 355.5,39C 354.02,41.6679 352.52,41.8345 351,39.5C 350.439,40.0219 349.772,40.3552 349,40.5C 347.413,39.3301 345.747,38.3301 344,37.5C 344.687,36.7928 345.354,35.4595 346,33.5C 346.333,34.5 346.667,35.5 347,36.5C 347.442,34.3215 348.442,33.6548 350,34.5C 350.824,33.1916 351.324,31.6916 351.5,30C 350,29.1667 348.833,28 348,26.5C 347.586,26.9574 347.086,27.2907 346.5,27.5C 344.78,25.8694 342.78,24.7028 340.5,24C 341.938,23.7811 343.271,23.2811 344.5,22.5C 344.154,21.3044 343.654,21.3044 343,22.5C 342.751,21.376 342.251,20.376 341.5,19.5C 339.364,20.4724 338.197,22.1391 338,24.5C 336.456,22.5318 335.289,20.3651 334.5,18C 335.744,17.5439 336.577,18.0439 337,19.5C 337.561,16.7019 336.394,14.8686 333.5,14C 334.812,11.5099 334.145,9.00988 331.5,6.5C 333.991,5.45928 333.991,4.62595 331.5,4C 333.249,1.40906 335.249,0.742388 337.5,2C 335.604,3.06461 335.437,3.89794 337,4.5C 338.221,3.72819 339.221,2.72819 340,1.5C 342.774,2.19145 345.274,1.52479 347.5,-0.5 Z"/></g>
<g><path style="opacity:1" fill="#625f63" d="M 198.5,-0.5 C 234.167,-0.5 269.833,-0.5 305.5,-0.5C 305.082,0.221579 304.416,0.721579 303.5,1C 303.833,1.33333 304.167,1.66667 304.5,2C 303.552,2.48278 302.552,2.64945 301.5,2.5C 301.472,4.58236 302.139,6.4157 303.5,8C 302.853,9.6095 302.02,11.1095 301,12.5C 300.632,11.09 299.799,10.09 298.5,9.5C 297.718,11.3293 298.384,12.8293 300.5,14C 303.146,14.4974 305.813,14.6641 308.5,14.5C 308.22,17.2867 306.887,19.4534 304.5,21C 305.167,21.3333 305.833,21.6667 306.5,22C 304.567,22.2511 302.734,22.7511 301,23.5C 300.667,22.8333 300.333,22.1667 300,21.5C 298.509,23.0037 296.676,23.8371 294.5,24C 293.978,24.5613 293.645,25.228 293.5,26C 294.482,27.0544 295.649,27.5544 297,27.5C 297.667,26.8333 298.333,26.1667 299,25.5C 301.094,27.7843 303.26,28.2843 305.5,27C 301.507,23.3019 302.173,22.6352 307.5,25C 306.353,27.0846 307.02,28.5846 309.5,29.5C 311.214,28.3915 311.881,29.0582 311.5,31.5C 313.226,31.8146 314.893,31.9813 316.5,32C 313.816,30.1547 314.149,28.988 317.5,28.5C 319.135,29.0463 320.801,29.3796 322.5,29.5C 322.649,30.552 322.483,31.552 322,32.5C 320.506,31.2528 319.006,31.2528 317.5,32.5C 320.137,34.0609 322.637,35.7276 325,37.5C 325.984,35.2053 326.817,35.5386 327.5,38.5C 324.823,40.2638 325.156,41.4304 328.5,42C 327.376,42.2492 326.376,42.7492 325.5,43.5C 327.812,45.2388 330.312,46.5721 333,47.5C 333.667,46.8333 334.333,46.1667 335,45.5C 335.388,46.428 336.055,47.0946 337,47.5C 339.496,46.9938 341.83,46.9938 344,47.5C 344.448,49.4089 343.615,50.5756 341.5,51C 345.478,49.8166 348.478,51.1499 350.5,55C 349.692,55.3076 349.025,55.8076 348.5,56.5C 350.555,57.1872 352.221,58.3539 353.5,60C 348.421,58.5367 348.087,60.2033 352.5,65C 351.167,65.6667 351.167,66.3333 352.5,67C 350.699,67.3173 350.366,67.984 351.5,69C 354.034,69.5163 356.2,70.683 358,72.5C 358.333,71.1667 358.667,69.8333 359,68.5C 361.498,67.8788 363.832,68.5455 366,70.5C 366.667,67.8333 367.333,67.8333 368,70.5C 367.613,68.3492 366.947,66.3492 366,64.5C 366.853,66.1247 367.853,66.4581 369,65.5C 369.219,66.938 369.719,68.2713 370.5,69.5C 371.396,68.4937 372.062,68.4937 372.5,69.5C 371.018,71.4829 369.351,73.3163 367.5,75C 368,75.5 368.5,76 369,76.5C 369.973,74.36 371.473,72.6933 373.5,71.5C 373.835,73.0026 373.835,74.336 373.5,75.5C 376.708,74.198 380.041,73.5313 383.5,73.5C 383.5,74.5 383.5,75.5 383.5,76.5C 381.322,77.204 379.322,77.5374 377.5,77.5C 378.015,79.2251 378.682,80.8917 379.5,82.5C 380.86,80.1516 382.527,79.9849 384.5,82C 383.619,83.793 384.286,84.4597 386.5,84C 386.167,83.6667 385.833,83.3333 385.5,83C 386.313,81.6861 387.313,80.5195 388.5,79.5C 387.624,78.7492 386.624,78.2492 385.5,78C 388.811,76.2289 390.311,77.0622 390,80.5C 391.88,79.0705 393.38,79.4038 394.5,81.5C 392.577,82.3078 390.577,82.8078 388.5,83C 387.269,84.1827 387.269,85.3493 388.5,86.5C 390.641,86.1121 392.641,86.1121 394.5,86.5C 395.517,83.972 396.684,83.972 398,86.5C 399.113,85.2889 400.28,85.2889 401.5,86.5C 402.167,85.8333 402.833,85.1667 403.5,84.5C 404.108,85.7634 404.774,87.4301 405.5,89.5C 406.959,89.5674 408.292,89.2341 409.5,88.5C 409.5,98.1667 409.5,107.833 409.5,117.5C 408.542,117.047 407.708,116.381 407,115.5C 407.43,117.127 407.596,118.627 407.5,120C 406.333,120.5 405.5,121.333 405,122.5C 403.795,121.929 402.628,121.262 401.5,120.5C 402.274,119.289 403.107,119.289 404,120.5C 403.155,117.269 401.488,116.936 399,119.5C 398.5,119 398,118.5 397.5,118C 397.616,116.732 397.949,115.398 398.5,114C 396.888,113.28 395.388,113.446 394,114.5C 393.667,113.833 393.333,113.167 393,112.5C 391.667,113.167 390.333,113.833 389,114.5C 386.795,114.088 384.462,114.088 382,114.5C 381.574,112.985 380.074,111.985 377.5,111.5C 378.5,110.833 379.5,110.167 380.5,109.5C 378.111,108.398 376.277,106.731 375,104.5C 371.978,104.88 368.978,105.213 366,105.5C 364.221,103.983 364.721,103.149 367.5,103C 365.833,102.667 364.167,102.333 362.5,102C 363.047,101.075 363.713,100.242 364.5,99.5C 366.544,101.355 368.711,102.022 371,101.5C 371.624,99.5355 371.124,97.8689 369.5,96.5C 370.89,94.8306 371.223,93.1639 370.5,91.5C 369.509,93.3231 368.176,94.8231 366.5,96C 367.167,96.3333 367.833,96.6667 368.5,97C 366.833,97.6667 365.167,97.6667 363.5,97C 363.833,96.6667 364.167,96.3333 364.5,96C 363.167,95.6667 361.833,95.3333 360.5,95C 361.451,94.2825 361.617,93.4491 361,92.5C 359.676,93.8802 358.343,94.2135 357,93.5C 356.5,94.6667 355.667,95.5 354.5,96C 354.833,96.3333 355.167,96.6667 355.5,97C 354.234,97.3095 353.067,97.8095 352,98.5C 350.504,95.9976 348.337,94.3309 345.5,93.5C 346.397,93.3309 347.397,92.9976 348.5,92.5C 347.469,91.2997 346.635,89.9663 346,88.5C 345.667,89.1667 345.333,89.8333 345,90.5C 344,89.1667 343,87.8333 342,86.5C 341.667,87.8333 341.333,89.1667 341,90.5C 340.259,89.3595 339.425,89.3595 338.5,90.5C 337.667,89.5 336.833,88.5 336,87.5C 335.282,88.4506 334.449,88.6172 333.5,88C 334.833,86.6667 336.167,85.3333 337.5,84C 336.151,83.2276 335.318,82.0609 335,80.5C 334.25,81.1258 333.416,81.6258 332.5,82C 334.007,82.8373 334.507,84.0039 334,85.5C 332.992,85.0183 331.825,84.8516 330.5,85C 331.102,83.096 330.602,81.2627 329,79.5C 328.667,80.8333 328.333,82.1667 328,83.5C 327.233,78.6948 325.4,74.3614 322.5,70.5C 320.833,69.8333 319.167,69.1667 317.5,68.5C 318.167,67.5 318.833,66.5 319.5,65.5C 318.207,63.8974 317.207,62.2307 316.5,60.5C 315.886,56.8648 315.552,53.1981 315.5,49.5C 309.741,49.2143 304.075,49.5476 298.5,50.5C 288.5,50.5 278.5,50.5 268.5,50.5C 268.784,48.5853 268.451,46.9187 267.5,45.5C 266.833,44.1667 265.833,43.1667 264.5,42.5C 256.791,41.7074 249.124,40.8741 241.5,40C 240.549,39.2825 240.383,38.4491 241,37.5C 242.388,38.5536 243.888,38.7203 245.5,38C 244.138,35.5612 242.305,35.0612 240,36.5C 239.342,34.892 239.842,33.7253 241.5,33C 239.126,30.9348 236.96,31.1015 235,33.5C 234.274,30.3793 232.774,27.7127 230.5,25.5C 229.495,31.37 227.161,31.7034 223.5,26.5C 224.025,25.8076 224.692,25.3076 225.5,25C 224.167,24.3333 224.167,23.6667 225.5,23C 224.5,22.3333 223.5,22.3333 222.5,23C 222.5,25 222.5,27 222.5,29C 220.913,29.8624 219.246,30.5291 217.5,31C 219.686,31.6036 219.852,32.7703 218,34.5C 217.167,32.5 216.333,30.5 215.5,28.5C 214.167,29.8333 212.833,29.8333 211.5,28.5C 210.416,29.6651 209.583,30.9984 209,32.5C 207.011,30.6759 205.177,28.6759 203.5,26.5C 204.687,25.4805 205.687,24.3139 206.5,23C 209.034,22.4837 211.2,21.317 213,19.5C 213.414,19.9574 213.914,20.2907 214.5,20.5C 215.167,18.5 215.833,16.5 216.5,14.5C 217.429,15.6888 217.762,17.0222 217.5,18.5C 219.958,18.7725 221.625,17.7725 222.5,15.5C 220.596,14.5909 218.762,13.5909 217,12.5C 216.228,12.6448 215.561,12.9781 215,13.5C 213.154,10.2184 210.987,10.3851 208.5,14C 210.421,15.0309 210.421,16.5309 208.5,18.5C 208.331,17.6034 207.998,16.6034 207.5,15.5C 206.252,16.0402 205.085,16.7069 204,17.5C 203.097,16.2986 201.931,15.4652 200.5,15C 201.505,13.4933 202.838,12.3267 204.5,11.5C 204.023,10.5224 203.357,9.68909 202.5,9C 203.308,8.69238 203.975,8.19238 204.5,7.5C 203.482,6.14756 202.149,5.14756 200.5,4.5C 201.376,3.74917 202.376,3.24917 203.5,3C 201.41,2.33055 199.743,1.16388 198.5,-0.5 Z"/></g>
<g><path style="opacity:1" fill="#5d5b5e" d="M 305.5,-0.5 C 319.5,-0.5 333.5,-0.5 347.5,-0.5C 345.274,1.52479 342.774,2.19145 340,1.5C 339.221,2.72819 338.221,3.72819 337,4.5C 335.437,3.89794 335.604,3.06461 337.5,2C 335.249,0.742388 333.249,1.40906 331.5,4C 333.991,4.62595 333.991,5.45928 331.5,6.5C 334.145,9.00988 334.812,11.5099 333.5,14C 336.394,14.8686 337.561,16.7019 337,19.5C 336.577,18.0439 335.744,17.5439 334.5,18C 335.289,20.3651 336.456,22.5318 338,24.5C 338.197,22.1391 339.364,20.4724 341.5,19.5C 342.251,20.376 342.751,21.376 343,22.5C 343.654,21.3044 344.154,21.3044 344.5,22.5C 343.271,23.2811 341.938,23.7811 340.5,24C 342.78,24.7028 344.78,25.8694 346.5,27.5C 347.086,27.2907 347.586,26.9574 348,26.5C 348.833,28 350,29.1667 351.5,30C 351.324,31.6916 350.824,33.1916 350,34.5C 348.442,33.6548 347.442,34.3215 347,36.5C 346.667,35.5 346.333,34.5 346,33.5C 345.354,35.4595 344.687,36.7928 344,37.5C 345.747,38.3301 347.413,39.3301 349,40.5C 349.772,40.3552 350.439,40.0219 351,39.5C 352.52,41.8345 354.02,41.6679 355.5,39C 354.552,38.5172 353.552,38.3505 352.5,38.5C 352.67,37.1779 352.337,36.0113 351.5,35C 353.002,34.4169 354.335,33.5836 355.5,32.5C 356.641,31.5745 356.641,30.7412 355.5,30C 356.766,29.6905 357.933,29.1905 359,28.5C 359.645,29.646 360.478,30.646 361.5,31.5C 357.245,33.8651 357.579,34.8651 362.5,34.5C 362.5,33.1667 362.5,31.8333 362.5,30.5C 365.044,30.8957 367.211,30.229 369,28.5C 369.667,30.5 369.667,32.5 369,34.5C 365.643,35.7423 365.81,36.5756 369.5,37C 368.128,38.2419 367.128,39.7419 366.5,41.5C 367.852,44.7271 369.519,45.0605 371.5,42.5C 370.128,40.3802 370.795,39.3802 373.5,39.5C 372.862,41.46 372.862,43.2933 373.5,45C 372.551,45.6172 371.718,45.4506 371,44.5C 369.007,47.2802 369.84,48.1135 373.5,47C 375.009,45.3264 375.676,43.6597 375.5,42C 379.008,41.2694 379.341,41.9361 376.5,44C 376.867,46.2442 377.867,46.7442 379.5,45.5C 380.883,48.0756 381.717,47.7423 382,44.5C 383.487,45.2529 383.654,46.0862 382.5,47C 383.293,48.0852 383.96,49.2519 384.5,50.5C 383.48,52.4325 383.313,54.4325 384,56.5C 384.333,56.1667 384.667,55.8333 385,55.5C 385.388,56.428 386.055,57.0946 387,57.5C 388.713,56.8626 388.879,55.8626 387.5,54.5C 388.729,53.7189 390.062,53.2189 391.5,53C 391.93,52.0805 392.264,51.2472 392.5,50.5C 396.28,53.162 395.614,54.8287 390.5,55.5C 391.274,56.7112 392.107,56.7112 393,55.5C 394.365,56.5929 394.699,57.9262 394,59.5C 392.703,58.2164 391.536,58.3831 390.5,60C 392.115,63.3071 394.281,66.8071 397,70.5C 397.308,69.6919 397.808,69.0253 398.5,68.5C 399.5,69.1667 400.5,69.8333 401.5,70.5C 402.583,69.635 402.749,68.635 402,67.5C 400.391,66.8534 398.891,66.02 397.5,65C 400.073,65.2042 402.74,64.7042 405.5,63.5C 406.103,65.4523 405.77,67.4523 404.5,69.5C 405.603,69.9976 406.603,70.3309 407.5,70.5C 405.892,71.3184 404.225,71.9851 402.5,72.5C 401.417,73.365 401.251,74.365 402,75.5C 402.7,73.968 403.866,72.968 405.5,72.5C 406.696,72.8457 406.696,73.3457 405.5,74C 406.745,74.7914 408.078,75.2914 409.5,75.5C 409.5,79.8333 409.5,84.1667 409.5,88.5C 408.292,89.2341 406.959,89.5674 405.5,89.5C 404.774,87.4301 404.108,85.7634 403.5,84.5C 402.833,85.1667 402.167,85.8333 401.5,86.5C 400.28,85.2889 399.113,85.2889 398,86.5C 396.684,83.972 395.517,83.972 394.5,86.5C 392.641,86.1121 390.641,86.1121 388.5,86.5C 387.269,85.3493 387.269,84.1827 388.5,83C 390.577,82.8078 392.577,82.3078 394.5,81.5C 393.38,79.4038 391.88,79.0705 390,80.5C 390.311,77.0622 388.811,76.2289 385.5,78C 386.624,78.2492 387.624,78.7492 388.5,79.5C 387.313,80.5195 386.313,81.6861 385.5,83C 385.833,83.3333 386.167,83.6667 386.5,84C 384.286,84.4597 383.619,83.793 384.5,82C 382.527,79.9849 380.86,80.1516 379.5,82.5C 378.682,80.8917 378.015,79.2251 377.5,77.5C 379.322,77.5374 381.322,77.204 383.5,76.5C 383.5,75.5 383.5,74.5 383.5,73.5C 380.041,73.5313 376.708,74.198 373.5,75.5C 373.835,74.336 373.835,73.0026 373.5,71.5C 371.473,72.6933 369.973,74.36 369,76.5C 368.5,76 368,75.5 367.5,75C 369.351,73.3163 371.018,71.4829 372.5,69.5C 372.062,68.4937 371.396,68.4937 370.5,69.5C 369.719,68.2713 369.219,66.938 369,65.5C 367.853,66.4581 366.853,66.1247 366,64.5C 366.947,66.3492 367.613,68.3492 368,70.5C 367.333,67.8333 366.667,67.8333 366,70.5C 363.832,68.5455 361.498,67.8788 359,68.5C 358.667,69.8333 358.333,71.1667 358,72.5C 356.2,70.683 354.034,69.5163 351.5,69C 350.366,67.984 350.699,67.3173 352.5,67C 351.167,66.3333 351.167,65.6667 352.5,65C 348.087,60.2033 348.421,58.5367 353.5,60C 352.221,58.3539 350.555,57.1872 348.5,56.5C 349.025,55.8076 349.692,55.3076 350.5,55C 348.478,51.1499 345.478,49.8166 341.5,51C 343.615,50.5756 344.448,49.4089 344,47.5C 341.83,46.9938 339.496,46.9938 337,47.5C 336.055,47.0946 335.388,46.428 335,45.5C 334.333,46.1667 333.667,46.8333 333,47.5C 330.312,46.5721 327.812,45.2388 325.5,43.5C 326.376,42.7492 327.376,42.2492 328.5,42C 325.156,41.4304 324.823,40.2638 327.5,38.5C 326.817,35.5386 325.984,35.2053 325,37.5C 322.637,35.7276 320.137,34.0609 317.5,32.5C 319.006,31.2528 320.506,31.2528 322,32.5C 322.483,31.552 322.649,30.552 322.5,29.5C 320.801,29.3796 319.135,29.0463 317.5,28.5C 314.149,28.988 313.816,30.1547 316.5,32C 314.893,31.9813 313.226,31.8146 311.5,31.5C 311.881,29.0582 311.214,28.3915 309.5,29.5C 307.02,28.5846 306.353,27.0846 307.5,25C 302.173,22.6352 301.507,23.3019 305.5,27C 303.26,28.2843 301.094,27.7843 299,25.5C 298.333,26.1667 297.667,26.8333 297,27.5C 295.649,27.5544 294.482,27.0544 293.5,26C 293.645,25.228 293.978,24.5613 294.5,24C 296.676,23.8371 298.509,23.0037 300,21.5C 300.333,22.1667 300.667,22.8333 301,23.5C 302.734,22.7511 304.567,22.2511 306.5,22C 305.833,21.6667 305.167,21.3333 304.5,21C 306.887,19.4534 308.22,17.2867 308.5,14.5C 305.813,14.6641 303.146,14.4974 300.5,14C 298.384,12.8293 297.718,11.3293 298.5,9.5C 299.799,10.09 300.632,11.09 301,12.5C 302.02,11.1095 302.853,9.6095 303.5,8C 302.139,6.4157 301.472,4.58236 301.5,2.5C 302.552,2.64945 303.552,2.48278 304.5,2C 304.167,1.66667 303.833,1.33333 303.5,1C 304.416,0.721579 305.082,0.221579 305.5,-0.5 Z"/></g>
<g><path style="opacity:1" fill="#787b86" d="M 267.5,45.5 C 268.451,46.9187 268.784,48.5853 268.5,50.5C 278.5,50.5 288.5,50.5 298.5,50.5C 288.347,51.4942 278.014,51.8276 267.5,51.5C 267.5,49.5 267.5,47.5 267.5,45.5 Z"/></g>
<g><path style="opacity:1" fill="#eeedec" d="M 264.5,42.5 C 265.833,43.1667 266.833,44.1667 267.5,45.5C 267.5,47.5 267.5,49.5 267.5,51.5C 278.014,51.8276 288.347,51.4942 298.5,50.5C 304.075,49.5476 309.741,49.2143 315.5,49.5C 315.552,53.1981 315.886,56.8648 316.5,60.5C 316.5,72.5 316.5,84.5 316.5,96.5C 316.5,112.5 316.5,128.5 316.5,144.5C 316.5,180.833 316.5,217.167 316.5,253.5C 315.679,250.359 315.179,247.025 315,243.5C 314.631,219.158 313.964,194.825 313,170.5C 310.689,169.513 308.355,168.513 306,167.5C 304.635,167.844 303.468,168.511 302.5,169.5C 301.468,167.96 300.135,167.46 298.5,168C 300.301,168.317 300.634,168.984 299.5,170C 300,170.5 300.5,171 301,171.5C 302.113,170.289 303.28,170.289 304.5,171.5C 305.167,170.5 305.833,169.5 306.5,168.5C 306.296,169.529 306.796,170.529 308,171.5C 309.011,170.663 310.178,170.33 311.5,170.5C 311.287,180.475 311.62,190.142 312.5,199.5C 311.637,201.872 310.471,201.872 309,199.5C 308.29,200.973 307.124,201.64 305.5,201.5C 305.5,200.5 305.5,199.5 305.5,198.5C 301.288,199.858 296.955,200.858 292.5,201.5C 292.5,203.833 292.5,206.167 292.5,208.5C 289.017,207.916 286.017,208.749 283.5,211C 286.332,212.908 285.999,213.741 282.5,213.5C 282.5,212.5 282.5,211.5 282.5,210.5C 279.017,210.691 275.684,211.357 272.5,212.5C 272.5,211.167 272.5,209.833 272.5,208.5C 271.127,208.657 269.793,208.49 268.5,208C 268.833,207.667 269.167,207.333 269.5,207C 267.664,205.581 265.664,204.414 263.5,203.5C 264.376,202.749 265.376,202.249 266.5,202C 265.238,199.821 263.905,197.655 262.5,195.5C 262.709,194.914 263.043,194.414 263.5,194C 261,192.833 258.5,191.667 256,190.5C 255.483,187.176 254.65,184.51 253.5,182.5C 254.873,182.343 256.207,182.51 257.5,183C 256.786,184.343 257.12,185.676 258.5,187C 259.766,187.309 260.933,187.809 262,188.5C 262.333,188.167 262.667,187.833 263,187.5C 263.883,190.1 265.383,192.267 267.5,194C 269.055,195.646 270.721,195.979 272.5,195C 272.167,195.333 271.833,195.667 271.5,196C 273.258,198.22 274.258,200.386 274.5,202.5C 275.767,199.761 275.601,197.094 274,194.5C 271.31,193.071 268.477,192.071 265.5,191.5C 265.5,189.833 265.5,188.167 265.5,186.5C 261.645,185.453 258.145,183.786 255,181.5C 251.606,181.372 250.439,182.705 251.5,185.5C 249.833,186.833 248.167,186.833 246.5,185.5C 244.757,179.04 243.923,172.373 244,165.5C 243.333,169.5 242.667,169.5 242,165.5C 241.667,166.167 241.333,166.833 241,167.5C 239.979,164.895 239.145,162.228 238.5,159.5C 237.311,158.571 235.978,158.238 234.5,158.5C 234.775,153.78 233.941,153.446 232,157.5C 231.667,156.833 231.333,156.167 231,155.5C 229.39,157.939 228.556,160.606 228.5,163.5C 224.5,163.833 224.5,164.167 228.5,164.5C 228.5,165.5 228.5,166.5 228.5,167.5C 224.842,168.32 222.509,166.987 221.5,163.5C 220.575,162.359 219.741,162.359 219,163.5C 219.829,160.688 218.662,158.854 215.5,158C 216.993,156.844 216.826,156.01 215,155.5C 214.5,155.667 214,155.833 213.5,156C 214.711,156.893 214.711,157.726 213.5,158.5C 212.167,158.833 210.833,159.167 209.5,159.5C 210.729,160.281 212.062,160.781 213.5,161C 208.113,161.844 207.113,164.511 210.5,169C 209.663,170.011 209.33,171.178 209.5,172.5C 206.975,173.64 204.308,174.307 201.5,174.5C 201.5,175.5 201.5,176.5 201.5,177.5C 196.151,180.256 190.651,182.923 185,185.5C 183.266,184.751 181.433,184.251 179.5,184C 178.663,182.989 178.33,181.822 178.5,180.5C 176.092,181.061 173.759,181.561 171.5,182C 173.265,179.189 175.432,176.689 178,174.5C 178.497,172.19 178.663,169.857 178.5,167.5C 175.225,167.233 174.392,168.233 176,170.5C 176.333,169.833 176.667,169.167 177,168.5C 177.49,169.793 177.657,171.127 177.5,172.5C 175.416,171.752 173.416,171.752 171.5,172.5C 170.614,171.675 170.281,170.675 170.5,169.5C 167.525,169.307 165.025,170.307 163,172.5C 161.088,171.308 159.088,170.308 157,169.5C 156.713,167.109 156.213,164.776 155.5,162.5C 155.938,161.494 156.604,161.494 157.5,162.5C 158.243,161.092 159.077,159.759 160,158.5C 160.667,159.833 161.333,159.833 162,158.5C 162.121,156.273 162.954,154.44 164.5,153C 159.167,152.333 159.167,151.667 164.5,151C 160.972,150.555 157.972,149.055 155.5,146.5C 154.167,147.833 154.167,149.167 155.5,150.5C 156.881,152.691 158.881,154.024 161.5,154.5C 160.975,155.192 160.308,155.692 159.5,156C 159.833,156.333 160.167,156.667 160.5,157C 157.678,157.564 155.178,158.064 153,158.5C 153.255,159.915 153.755,161.415 154.5,163C 153.382,165.059 152.715,167.226 152.5,169.5C 150.833,169.5 149.167,169.5 147.5,169.5C 147.66,171.199 147.494,172.866 147,174.5C 146.577,173.044 145.744,172.544 144.5,173C 145.711,174.113 145.711,175.28 144.5,176.5C 146.045,177.452 147.712,177.785 149.5,177.5C 149.5,176.5 149.5,175.5 149.5,174.5C 150.5,174.5 151.5,174.5 152.5,174.5C 153.167,178.5 153.833,178.5 154.5,174.5C 156.167,174.5 157.833,174.5 159.5,174.5C 159.5,175.5 159.5,176.5 159.5,177.5C 155.556,178.274 155.723,178.941 160,179.5C 162.754,180.376 165.421,180.376 168,179.5C 168.667,180.5 168.667,181.5 168,182.5C 167.667,182.167 167.333,181.833 167,181.5C 166.29,182.973 165.124,183.64 163.5,183.5C 163.5,184.5 163.5,185.5 163.5,186.5C 166.308,186.693 168.975,187.36 171.5,188.5C 171.813,191.247 171.48,193.914 170.5,196.5C 168.563,197.766 166.23,197.766 163.5,196.5C 163.328,200.971 162.494,201.304 161,197.5C 157.708,199.018 154.875,198.351 152.5,195.5C 151.515,193.902 151.349,192.235 152,190.5C 153.677,188.475 154.677,186.141 155,183.5C 155.889,184.888 156.389,184.722 156.5,183C 155.978,182.05 155.311,181.216 154.5,180.5C 149.972,180.028 145.639,179.028 141.5,177.5C 139.174,178.993 137.174,180.826 135.5,183C 135.611,184.722 136.111,184.888 137,183.5C 137.494,185.134 137.66,186.801 137.5,188.5C 136.167,188.5 134.833,188.5 133.5,188.5C 133.665,191.518 133.498,194.518 133,197.5C 132.333,198.833 131.667,198.833 131,197.5C 130.5,199 130,200.5 129.5,202C 129.905,202.945 130.572,203.612 131.5,204C 128.622,205.524 125.288,206.69 121.5,207.5C 120.36,210.025 119.693,212.692 119.5,215.5C 118.5,215.5 117.5,215.5 116.5,215.5C 116.662,213.473 116.495,211.473 116,209.5C 115.764,211.764 115.264,213.931 114.5,216C 116.473,216.495 118.473,216.662 120.5,216.5C 120.5,214.833 120.5,213.167 120.5,211.5C 122.199,211.34 123.866,211.506 125.5,212C 123.656,214.804 122.989,217.97 123.5,221.5C 124.5,221.5 125.5,221.5 126.5,221.5C 126.769,223.429 126.269,225.095 125,226.5C 123,226.5 121,226.5 119,226.5C 117.388,223.521 114.888,222.188 111.5,222.5C 112.876,219.342 113.542,216.009 113.5,212.5C 111.5,212.5 109.5,212.5 107.5,212.5C 107.728,214.355 107.061,215.188 105.5,215C 106.167,213 106.833,211 107.5,209C 120.817,208.169 120.817,207.669 107.5,207.5C 107.5,205.833 107.5,204.167 107.5,202.5C 105.179,202.771 103.179,202.104 101.5,200.5C 99.7801,201.955 97.7801,202.788 95.5,203C 99.0929,204.109 102.593,204.609 106,204.5C 106.667,205.5 106.667,206.5 106,207.5C 104.229,208.304 102.729,209.471 101.5,211C 102.167,211.333 102.833,211.667 103.5,212C 100.574,212.218 97.7405,212.718 95,213.5C 94.2025,211.741 94.3691,210.074 95.5,208.5C 96.7362,209.246 98.0695,209.579 99.5,209.5C 99.5,207.833 99.5,206.167 99.5,204.5C 98.5,204.5 97.5,204.5 96.5,204.5C 96.5,205.5 96.5,206.5 96.5,207.5C 95.5,207.5 94.5,207.5 93.5,207.5C 93.5,210.5 93.5,213.5 93.5,216.5C 92.5,216.5 91.5,216.5 90.5,216.5C 89.9889,220.03 90.6556,223.196 92.5,226C 91.6919,226.308 91.0253,226.808 90.5,227.5C 91.4415,227.489 92.1081,227.989 92.5,229C 90.621,238.373 88.621,247.873 86.5,257.5C 86.5,188.833 86.5,120.167 86.5,51.5C 99.8333,51.5 113.167,51.5 126.5,51.5C 126.5,49.1667 126.5,46.8333 126.5,44.5C 133.833,44.5 141.167,44.5 148.5,44.5C 148.5,46.8333 148.5,49.1667 148.5,51.5C 169.006,51.9725 189.339,51.9725 209.5,51.5C 221.171,51.6665 232.838,51.4999 244.5,51C 245.435,48.6194 245.768,46.1194 245.5,43.5C 251.789,42.6279 258.122,42.2946 264.5,42.5 Z"/></g>
<g><path style="opacity:1" fill="#706e72" d="M 85.5,51.5 C 85.5,72.5 85.5,93.5 85.5,114.5C 82.101,114.45 80.7677,112.95 81.5,110C 80.2559,109.544 79.4226,110.044 79,111.5C 78.6924,110.692 78.1924,110.025 77.5,109.5C 77.8758,112.753 76.5425,115.42 73.5,117.5C 73.1667,117.167 72.8333,116.833 72.5,116.5C 73.1667,115.5 73.8333,114.5 74.5,113.5C 74.0879,111.113 73.0879,109.113 71.5,107.5C 70.2011,108.09 69.3678,109.09 69,110.5C 67.566,108.864 65.7326,107.864 63.5,107.5C 63.6931,108.688 63.1931,110.022 62,111.5C 60.2859,110.075 58.9525,110.408 58,112.5C 56.5,111 55,109.5 53.5,108C 55.1124,107.28 56.6124,107.446 58,108.5C 58.9278,102.695 56.9278,102.028 52,106.5C 50.3181,105.135 50.1514,103.635 51.5,102C 50.1962,97.6415 48.1962,96.9748 45.5,100C 46.8333,101 48.1667,102 49.5,103C 48.7801,105.122 47.6134,105.622 46,104.5C 43.6413,107.124 43.9746,107.791 47,106.5C 49.5425,107.876 49.7092,109.043 47.5,110C 48.3081,110.308 48.9747,110.808 49.5,111.5C 48.0878,112.806 46.4211,113.64 44.5,114C 45.7112,114.893 45.7112,115.726 44.5,116.5C 43.5723,114.665 42.4056,114.332 41,115.5C 40.5348,114.069 39.7014,112.903 38.5,112C 38.8333,111.667 39.1667,111.333 39.5,111C 37.9391,110.682 36.7724,109.849 36,108.5C 35.2825,109.451 34.4491,109.617 33.5,109C 36.6017,107.329 37.1017,105.162 35,102.5C 33.6054,103.815 32.6054,103.481 32,101.5C 31.4054,102.899 31.5721,104.232 32.5,105.5C 30.7408,106.754 29.2408,106.421 28,104.5C 28.0773,105.738 27.9106,106.738 27.5,107.5C 24.1342,107.24 20.6342,106.573 17,105.5C 16.6667,106.167 16.3333,106.833 16,107.5C 12.7312,103.368 11.3978,103.701 12,108.5C 10.9505,107.483 9.78387,107.316 8.5,108C 9.33663,109.011 9.66997,110.178 9.5,111.5C 7.65358,111.778 6.32025,111.111 5.5,109.5C 5.84569,108.304 6.34569,108.304 7,109.5C 7.27346,107.671 8.10679,106.171 9.5,105C 7.87391,105.195 6.20725,105.195 4.5,105C 7.22774,104.361 7.72774,103.194 6,101.5C 4.12459,100.377 1.95792,100.377 -0.5,101.5C -0.5,87.5 -0.5,73.5 -0.5,59.5C 1.01739,59.5106 2.18405,60.1772 3,61.5C 4.79079,58.1729 6.95746,57.8396 9.5,60.5C 12.4342,63.5501 11.7676,64.7168 7.5,64C 8.30806,63.6924 8.97473,63.1924 9.5,62.5C 6.95085,61.1688 5.28418,62.0021 4.5,65C 5.47058,66.2036 6.47058,66.7036 7.5,66.5C 6.83333,67.1667 6.16667,67.8333 5.5,68.5C 6.4336,71.9648 7.9336,72.2981 10,69.5C 11.7984,73.6471 13.6317,73.9804 15.5,70.5C 16.2048,72.6721 17.2048,74.6721 18.5,76.5C 20.4189,74.8348 22.2522,73.8348 24,73.5C 25.0809,71.378 25.7476,69.378 26,67.5C 27.2812,67.3808 28.4479,67.8808 29.5,69C 28.6634,70.0113 28.33,71.1779 28.5,72.5C 29.8734,72.3433 31.2068,72.51 32.5,73C 30.1902,73.4966 27.8568,73.6633 25.5,73.5C 26.5781,78.0819 28.4115,78.4152 31,74.5C 32.4896,76.558 34.4896,77.8913 37,78.5C 37.8373,76.9926 39.0039,76.4926 40.5,77C 40.273,78.1353 39.9396,79.302 39.5,80.5C 38.109,79.3554 36.7757,79.3554 35.5,80.5C 35.3151,82.4857 35.9818,84.4857 37.5,86.5C 37.5086,81.7463 39.6753,80.7463 44,83.5C 45.3681,82.0069 45.5348,80.5069 44.5,79C 46.8433,77.254 48.8433,77.4206 50.5,79.5C 52.3733,80.0891 54.04,79.4224 55.5,77.5C 60.2357,78.3805 64.9024,79.3805 69.5,80.5C 69.238,79.0222 69.5713,77.6888 70.5,76.5C 72.7015,78.0565 72.7015,79.2232 70.5,80C 73.1307,81.6909 72.7973,82.8576 69.5,83.5C 69.6667,83.8333 69.8333,84.1667 70,84.5C 71.7785,83.5209 73.4452,83.8542 75,85.5C 77.1667,84 77,82.8333 74.5,82C 77.8323,81.329 78.9989,82.4957 78,85.5C 79.0674,84.8095 80.2341,84.3095 81.5,84C 81.0426,83.586 80.7093,83.086 80.5,82.5C 81.6888,81.5713 83.0222,81.238 84.5,81.5C 84.8292,72.5513 84.4959,63.7179 83.5,55C 84.0848,53.6976 84.7515,52.531 85.5,51.5 Z"/></g>
<g><path style="opacity:1" fill="#666467" d="M 316.5,60.5 C 317.207,62.2307 318.207,63.8974 319.5,65.5C 318.833,66.5 318.167,67.5 317.5,68.5C 319.167,69.1667 320.833,69.8333 322.5,70.5C 325.4,74.3614 327.233,78.6948 328,83.5C 328.333,82.1667 328.667,80.8333 329,79.5C 330.602,81.2627 331.102,83.096 330.5,85C 331.825,84.8516 332.992,85.0183 334,85.5C 334.507,84.0039 334.007,82.8373 332.5,82C 333.416,81.6258 334.25,81.1258 335,80.5C 335.318,82.0609 336.151,83.2276 337.5,84C 336.167,85.3333 334.833,86.6667 333.5,88C 334.449,88.6172 335.282,88.4506 336,87.5C 336.833,88.5 337.667,89.5 338.5,90.5C 339.425,89.3595 340.259,89.3595 341,90.5C 341.333,89.1667 341.667,87.8333 342,86.5C 343,87.8333 344,89.1667 345,90.5C 345.333,89.8333 345.667,89.1667 346,88.5C 346.635,89.9663 347.469,91.2997 348.5,92.5C 347.397,92.9976 346.397,93.3309 345.5,93.5C 348.337,94.3309 350.504,95.9976 352,98.5C 353.067,97.8095 354.234,97.3095 355.5,97C 355.167,96.6667 354.833,96.3333 354.5,96C 355.667,95.5 356.5,94.6667 357,93.5C 358.343,94.2135 359.676,93.8802 361,92.5C 361.617,93.4491 361.451,94.2825 360.5,95C 361.833,95.3333 363.167,95.6667 364.5,96C 364.167,96.3333 363.833,96.6667 363.5,97C 365.167,97.6667 366.833,97.6667 368.5,97C 367.833,96.6667 367.167,96.3333 366.5,96C 368.176,94.8231 369.509,93.3231 370.5,91.5C 371.223,93.1639 370.89,94.8306 369.5,96.5C 371.124,97.8689 371.624,99.5355 371,101.5C 368.711,102.022 366.544,101.355 364.5,99.5C 363.713,100.242 363.047,101.075 362.5,102C 364.167,102.333 365.833,102.667 367.5,103C 364.721,103.149 364.221,103.983 366,105.5C 368.978,105.213 371.978,104.88 375,104.5C 376.277,106.731 378.111,108.398 380.5,109.5C 379.5,110.167 378.5,110.833 377.5,111.5C 380.074,111.985 381.574,112.985 382,114.5C 384.462,114.088 386.795,114.088 389,114.5C 390.333,113.833 391.667,113.167 393,112.5C 393.333,113.167 393.667,113.833 394,114.5C 395.388,113.446 396.888,113.28 398.5,114C 397.949,115.398 397.616,116.732 397.5,118C 398,118.5 398.5,119 399,119.5C 401.488,116.936 403.155,117.269 404,120.5C 403.107,119.289 402.274,119.289 401.5,120.5C 402.628,121.262 403.795,121.929 405,122.5C 405.5,121.333 406.333,120.5 407.5,120C 407.596,118.627 407.43,117.127 407,115.5C 407.708,116.381 408.542,117.047 409.5,117.5C 409.5,128.5 409.5,139.5 409.5,150.5C 403.578,151.616 403.244,150.782 408.5,148C 408,147.5 407.5,147 407,146.5C 406,146.833 405,147.167 404,147.5C 403.097,146.299 401.931,145.465 400.5,145C 401.5,144.667 402.5,144.333 403.5,144C 402.069,143.535 400.903,142.701 400,141.5C 397.347,141.682 394.68,142.015 392,142.5C 391.692,141.692 391.192,141.025 390.5,140.5C 389.186,141.313 388.019,142.313 387,143.5C 386.383,142.551 386.549,141.718 387.5,141C 384.064,141.348 380.731,141.181 377.5,140.5C 377.725,136.944 376.892,136.61 375,139.5C 374.055,139.095 373.388,138.428 373,137.5C 371.612,138.554 370.112,138.72 368.5,138C 368.833,137.667 369.167,137.333 369.5,137C 368.261,134.76 366.428,133.26 364,132.5C 363.055,132.905 362.388,133.572 362,134.5C 361.549,132.071 360.715,131.904 359.5,134C 360.451,134.718 360.617,135.551 360,136.5C 358.26,135.284 357.26,133.618 357,131.5C 355.68,131.799 354.18,131.966 352.5,132C 353.731,133.183 353.731,134.349 352.5,135.5C 351.106,133.275 349.94,130.942 349,128.5C 348.517,129.448 348.351,130.448 348.5,131.5C 347.127,131.343 345.793,131.51 344.5,132C 345.604,133.131 345.271,133.965 343.5,134.5C 343.009,132.321 343.009,130.321 343.5,128.5C 341.772,130.226 339.772,131.559 337.5,132.5C 335.714,130.078 334.048,130.078 332.5,132.5C 331.261,130.993 331.595,129.826 333.5,129C 332.874,128.25 332.374,127.416 332,126.5C 329.63,127.128 327.297,127.461 325,127.5C 324.5,127 324,126.5 323.5,126C 324.833,125.333 324.833,124.667 323.5,124C 327.543,123.53 328.21,122.03 325.5,119.5C 325.76,117.813 326.427,116.313 327.5,115C 326.234,114.691 325.067,114.191 324,113.5C 322.025,113.488 319.858,113.822 317.5,114.5C 317.823,108.31 317.49,102.31 316.5,96.5C 316.5,84.5 316.5,72.5 316.5,60.5 Z"/></g>
<g><path style="opacity:1" fill="#80746e" d="M 195.5,95.5 C 202.114,95.1451 207.447,97.4784 211.5,102.5C 206.408,99.3676 201.075,97.0342 195.5,95.5 Z"/></g>
<g><path style="opacity:1" fill="#645747" d="M 191.5,96.5 C 192.552,96.3505 193.552,96.5172 194.5,97C 193.167,97.3333 191.833,97.6667 190.5,98C 206.54,97.2115 214.54,104.712 214.5,120.5C 214.167,121.833 213.833,123.167 213.5,124.5C 212.954,120.16 211.954,115.827 210.5,111.5C 203.322,110.001 196.322,110.668 189.5,113.5C 184.253,117.112 182.086,122.112 183,128.5C 182.014,127.829 180.847,127.829 179.5,128.5C 178.833,127.167 178.167,125.833 177.5,124.5C 178.338,124.158 178.672,123.492 178.5,122.5C 179.232,123.808 180.066,125.142 181,126.5C 181.333,126.167 181.667,125.833 182,125.5C 182.667,118.833 182.667,112.167 182,105.5C 180.714,107.183 179.547,108.849 178.5,110.5C 178.5,109.833 178.167,109.5 177.5,109.5C 180.231,103.103 184.897,98.7701 191.5,96.5 Z"/></g>
<g><path style="opacity:1" fill="#aea9a1" d="M 191.5,96.5 C 192.568,95.5655 193.901,95.2322 195.5,95.5C 201.075,97.0342 206.408,99.3676 211.5,102.5C 214.231,104.071 216.065,106.405 217,109.5C 217.499,113.486 217.666,117.486 217.5,121.5C 216.683,119.031 216.183,116.365 216,113.5C 215.814,116.036 215.314,118.369 214.5,120.5C 214.54,104.712 206.54,97.2115 190.5,98C 191.833,97.6667 193.167,97.3333 194.5,97C 193.552,96.5172 192.552,96.3505 191.5,96.5 Z"/></g>
<g><path style="opacity:1" fill="#786d5f" d="M 213.5,124.5 C 213.672,125.492 213.338,126.158 212.5,126.5C 211.894,123.833 211.061,121.166 210,118.5C 204.903,119.024 199.903,120.024 195,121.5C 194.667,121.167 194.333,120.833 194,120.5C 191.071,121.188 188.237,122.188 185.5,123.5C 184.483,126.174 184.316,128.84 185,131.5C 183.989,130.663 182.822,130.33 181.5,130.5C 180.5,130.167 179.833,129.5 179.5,128.5C 180.847,127.829 182.014,127.829 183,128.5C 182.086,122.112 184.253,117.112 189.5,113.5C 196.322,110.668 203.322,110.001 210.5,111.5C 211.954,115.827 212.954,120.16 213.5,124.5 Z"/></g>
<g><path style="opacity:1" fill="#6c5331" d="M 178.5,122.5 C 178.5,118.5 178.5,114.5 178.5,110.5C 179.547,108.849 180.714,107.183 182,105.5C 182.667,112.167 182.667,118.833 182,125.5C 181.667,125.833 181.333,126.167 181,126.5C 180.066,125.142 179.232,123.808 178.5,122.5 Z"/></g>
<g><path style="opacity:1" fill="#2f2116" d="M 177.5,109.5 C 178.167,109.5 178.5,109.833 178.5,110.5C 178.5,114.5 178.5,118.5 178.5,122.5C 178.672,123.492 178.338,124.158 177.5,124.5C 176.217,119.469 176.217,114.469 177.5,109.5 Z"/></g>
<g><path style="opacity:1" fill="#757377" d="M 85.5,114.5 C 85.5,126.833 85.5,139.167 85.5,151.5C 84.8423,150.602 84.1757,149.602 83.5,148.5C 82.2798,147.289 81.1131,147.289 80,148.5C 79.6667,147.5 79.3333,146.5 79,145.5C 78.4087,148.145 77.0753,148.811 75,147.5C 73.7147,147.95 72.548,148.617 71.5,149.5C 70.6667,148.5 69.8333,147.5 69,146.5C 67.2355,147.086 65.2355,148.086 63,149.5C 61.605,149.22 60.4383,148.553 59.5,147.5C 60.5821,147.251 61.9154,147.085 63.5,147C 62.0953,145.731 60.4286,145.231 58.5,145.5C 58.67,146.822 58.3366,147.989 57.5,149C 55.8988,149.273 54.3988,149.773 53,150.5C 52.5,150 52,149.5 51.5,149C 55.5114,148.834 56.0114,148 53,146.5C 51.087,148.187 48.9203,148.687 46.5,148C 47.6721,147.581 48.6721,146.915 49.5,146C 46.905,145.774 44.405,145.274 42,144.5C 40.404,146.936 38.5707,147.436 36.5,146C 39.1025,145.261 40.7691,143.595 41.5,141C 39.2858,140.54 38.6192,141.207 39.5,143C 39,143.167 38.5,143.333 38,143.5C 36.3745,142.711 34.8745,141.711 33.5,140.5C 33.1667,140.667 32.8333,140.833 32.5,141C 33.6872,142.019 34.6872,143.186 35.5,144.5C 34.7261,145.711 33.8928,145.711 33,144.5C 32.6667,145.5 32.3333,146.5 32,147.5C 30.0258,147.353 28.0258,147.019 26,146.5C 25.5,147 25,147.5 24.5,148C 26.0441,148.29 27.3774,148.956 28.5,150C 25.5656,149.626 22.7322,149.459 20,149.5C 19.3964,151.686 18.2297,151.852 16.5,150C 17.1667,149.333 17.8333,148.667 18.5,148C 10.1367,147.251 9.80332,146.251 17.5,145C 16.0506,143.883 14.3839,143.216 12.5,143C 13.0465,142.075 13.7132,141.242 14.5,140.5C 15.8099,143.187 18.1432,143.687 21.5,142C 20.8333,141.667 20.1667,141.333 19.5,141C 20.8333,140.667 22.1667,140.333 23.5,140C 20.8276,139.166 18.161,138.332 15.5,137.5C 12.9713,140.27 10.638,140.104 8.5,137C 8.99627,135.004 9.99627,133.337 11.5,132C 9.5,131.333 7.5,131.333 5.5,132C 4.34738,133.883 2.68072,134.716 0.5,134.5C 0.5,133.5 0.5,132.5 0.5,131.5C 1.87344,131.657 3.20677,131.49 4.5,131C 3.03834,129.372 1.37167,129.205 -0.5,130.5C -0.5,120.833 -0.5,111.167 -0.5,101.5C 1.95792,100.377 4.12459,100.377 6,101.5C 7.72774,103.194 7.22774,104.361 4.5,105C 6.20725,105.195 7.87391,105.195 9.5,105C 8.10679,106.171 7.27346,107.671 7,109.5C 6.34569,108.304 5.84569,108.304 5.5,109.5C 6.32025,111.111 7.65358,111.778 9.5,111.5C 9.66997,110.178 9.33663,109.011 8.5,108C 9.78387,107.316 10.9505,107.483 12,108.5C 11.3978,103.701 12.7312,103.368 16,107.5C 16.3333,106.833 16.6667,106.167 17,105.5C 20.6342,106.573 24.1342,107.24 27.5,107.5C 27.9106,106.738 28.0773,105.738 28,104.5C 29.2408,106.421 30.7408,106.754 32.5,105.5C 31.5721,104.232 31.4054,102.899 32,101.5C 32.6054,103.481 33.6054,103.815 35,102.5C 37.1017,105.162 36.6017,107.329 33.5,109C 34.4491,109.617 35.2825,109.451 36,108.5C 36.7724,109.849 37.9391,110.682 39.5,111C 39.1667,111.333 38.8333,111.667 38.5,112C 39.7014,112.903 40.5348,114.069 41,115.5C 42.4056,114.332 43.5723,114.665 44.5,116.5C 45.7112,115.726 45.7112,114.893 44.5,114C 46.4211,113.64 48.0878,112.806 49.5,111.5C 48.9747,110.808 48.3081,110.308 47.5,110C 49.7092,109.043 49.5425,107.876 47,106.5C 43.9746,107.791 43.6413,107.124 46,104.5C 47.6134,105.622 48.7801,105.122 49.5,103C 48.1667,102 46.8333,101 45.5,100C 48.1962,96.9748 50.1962,97.6415 51.5,102C 50.1514,103.635 50.3181,105.135 52,106.5C 56.9278,102.028 58.9278,102.695 58,108.5C 56.6124,107.446 55.1124,107.28 53.5,108C 55,109.5 56.5,111 58,112.5C 58.9525,110.408 60.2859,110.075 62,111.5C 63.1931,110.022 63.6931,108.688 63.5,107.5C 65.7326,107.864 67.566,108.864 69,110.5C 69.3678,109.09 70.2011,108.09 71.5,107.5C 73.0879,109.113 74.0879,111.113 74.5,113.5C 73.8333,114.5 73.1667,115.5 72.5,116.5C 72.8333,116.833 73.1667,117.167 73.5,117.5C 76.5425,115.42 77.8758,112.753 77.5,109.5C 78.1924,110.025 78.6924,110.692 79,111.5C 79.4226,110.044 80.2559,109.544 81.5,110C 80.7677,112.95 82.101,114.45 85.5,114.5 Z"/></g>
<g><path style="opacity:1" fill="#cbccc7" d="M 217.5,121.5 C 216.644,126.349 213.977,129.682 209.5,131.5C 210.167,130.5 210.833,129.5 211.5,128.5C 211.833,127.833 212.167,127.167 212.5,126.5C 213.338,126.158 213.672,125.492 213.5,124.5C 213.833,123.167 214.167,121.833 214.5,120.5C 215.314,118.369 215.814,116.036 216,113.5C 216.183,116.365 216.683,119.031 217.5,121.5 Z"/></g>
<g><path style="opacity:1" fill="#8d8578" d="M 212.5,126.5 C 212.167,127.167 211.833,127.833 211.5,128.5C 209.929,127.803 208.429,127.47 207,127.5C 201.876,128.811 196.709,129.978 191.5,131C 190.269,132.183 190.269,133.349 191.5,134.5C 194.64,135.089 197.64,135.756 200.5,136.5C 192.89,138.351 186.557,136.351 181.5,130.5C 182.822,130.33 183.989,130.663 185,131.5C 184.316,128.84 184.483,126.174 185.5,123.5C 188.237,122.188 191.071,121.188 194,120.5C 194.333,120.833 194.667,121.167 195,121.5C 199.903,120.024 204.903,119.024 210,118.5C 211.061,121.166 211.894,123.833 212.5,126.5 Z"/></g>
<g><path style="opacity:1" fill="#999488" d="M 211.5,128.5 C 210.833,129.5 210.167,130.5 209.5,131.5C 207.284,134.444 204.284,136.111 200.5,136.5C 197.64,135.756 194.64,135.089 191.5,134.5C 190.269,133.349 190.269,132.183 191.5,131C 196.709,129.978 201.876,128.811 207,127.5C 208.429,127.47 209.929,127.803 211.5,128.5 Z"/></g>
<g><path style="opacity:1" fill="#7a787b" d="M 85.5,151.5 C 85.5,166.833 85.5,182.167 85.5,197.5C 85.1667,197.5 84.8333,197.5 84.5,197.5C 84.4062,188.838 84.4062,180.338 84.5,172C 82.6467,171.449 81.3133,172.115 80.5,174C 84.78,177.269 84.4466,178.435 79.5,177.5C 77.6675,178.248 76.0009,179.248 74.5,180.5C 71.9722,179.502 71.9722,178.669 74.5,178C 72.9984,177.417 71.6651,176.584 70.5,175.5C 70.7093,174.914 71.0426,174.414 71.5,174C 68.6655,171.816 67.3322,172.316 67.5,175.5C 64.8938,174.864 62.3938,174.864 60,175.5C 58.414,174.624 56.914,173.624 55.5,172.5C 54.2997,173.531 52.9663,174.365 51.5,175C 52.6537,175.914 52.487,176.747 51,177.5C 49.513,176.747 49.3463,175.914 50.5,175C 47.258,174.131 44.4246,172.631 42,170.5C 38.0764,173.064 35.0764,172.064 33,167.5C 32.2421,169.91 30.5754,170.91 28,170.5C 26.3419,170.325 25.0086,169.658 24,168.5C 23.3261,169.578 22.3261,170.245 21,170.5C 16.9776,169.058 12.8109,168.225 8.5,168C 10.7148,167.83 12.7148,167.163 14.5,166C 12.0801,166.988 9.74674,166.655 7.5,165C 8.70143,164.097 9.53476,162.931 10,161.5C 12.7182,164.4 14.2182,163.733 14.5,159.5C 16.1667,158.833 17.8333,158.167 19.5,157.5C 19.1667,156.5 18.5,155.833 17.5,155.5C 13.958,158.077 10.1247,159.077 6,158.5C 1.76436,159.317 1.59769,160.317 5.5,161.5C 5.33333,161.833 5.16667,162.167 5,162.5C 3.30054,161.594 1.4672,161.261 -0.5,161.5C -0.5,151.167 -0.5,140.833 -0.5,130.5C 1.37167,129.205 3.03834,129.372 4.5,131C 3.20677,131.49 1.87344,131.657 0.5,131.5C 0.5,132.5 0.5,133.5 0.5,134.5C 2.68072,134.716 4.34738,133.883 5.5,132C 7.5,131.333 9.5,131.333 11.5,132C 9.99627,133.337 8.99627,135.004 8.5,137C 10.638,140.104 12.9713,140.27 15.5,137.5C 18.161,138.332 20.8276,139.166 23.5,140C 22.1667,140.333 20.8333,140.667 19.5,141C 20.1667,141.333 20.8333,141.667 21.5,142C 18.1432,143.687 15.8099,143.187 14.5,140.5C 13.7132,141.242 13.0465,142.075 12.5,143C 14.3839,143.216 16.0506,143.883 17.5,145C 9.80332,146.251 10.1367,147.251 18.5,148C 17.8333,148.667 17.1667,149.333 16.5,150C 18.2297,151.852 19.3964,151.686 20,149.5C 22.7322,149.459 25.5656,149.626 28.5,150C 27.3774,148.956 26.0441,148.29 24.5,148C 25,147.5 25.5,147 26,146.5C 28.0258,147.019 30.0258,147.353 32,147.5C 32.3333,146.5 32.6667,145.5 33,144.5C 33.8928,145.711 34.7261,145.711 35.5,144.5C 34.6872,143.186 33.6872,142.019 32.5,141C 32.8333,140.833 33.1667,140.667 33.5,140.5C 34.8745,141.711 36.3745,142.711 38,143.5C 38.5,143.333 39,143.167 39.5,143C 38.6192,141.207 39.2858,140.54 41.5,141C 40.7691,143.595 39.1025,145.261 36.5,146C 38.5707,147.436 40.404,146.936 42,144.5C 44.405,145.274 46.905,145.774 49.5,146C 48.6721,146.915 47.6721,147.581 46.5,148C 48.9203,148.687 51.087,148.187 53,146.5C 56.0114,148 55.5114,148.834 51.5,149C 52,149.5 52.5,150 53,150.5C 54.3988,149.773 55.8988,149.273 57.5,149C 58.3366,147.989 58.67,146.822 58.5,145.5C 60.4286,145.231 62.0953,145.731 63.5,147C 61.9154,147.085 60.5821,147.251 59.5,147.5C 60.4383,148.553 61.605,149.22 63,149.5C 65.2355,148.086 67.2355,147.086 69,146.5C 69.8333,147.5 70.6667,148.5 71.5,149.5C 72.548,148.617 73.7147,147.95 75,147.5C 77.0753,148.811 78.4087,148.145 79,145.5C 79.3333,146.5 79.6667,147.5 80,148.5C 81.1131,147.289 82.2798,147.289 83.5,148.5C 84.1757,149.602 84.8423,150.602 85.5,151.5 Z"/></g>
<g><path style="opacity:1" fill="#6d6b6e" d="M 316.5,96.5 C 317.49,102.31 317.823,108.31 317.5,114.5C 319.858,113.822 322.025,113.488 324,113.5C 325.067,114.191 326.234,114.691 327.5,115C 326.427,116.313 325.76,117.813 325.5,119.5C 328.21,122.03 327.543,123.53 323.5,124C 324.833,124.667 324.833,125.333 323.5,126C 324,126.5 324.5,127 325,127.5C 327.297,127.461 329.63,127.128 332,126.5C 332.374,127.416 332.874,128.25 333.5,129C 331.595,129.826 331.261,130.993 332.5,132.5C 334.048,130.078 335.714,130.078 337.5,132.5C 339.772,131.559 341.772,130.226 343.5,128.5C 343.009,130.321 343.009,132.321 343.5,134.5C 345.271,133.965 345.604,133.131 344.5,132C 345.793,131.51 347.127,131.343 348.5,131.5C 348.351,130.448 348.517,129.448 349,128.5C 349.94,130.942 351.106,133.275 352.5,135.5C 353.731,134.349 353.731,133.183 352.5,132C 354.18,131.966 355.68,131.799 357,131.5C 357.26,133.618 358.26,135.284 360,136.5C 360.617,135.551 360.451,134.718 359.5,134C 360.715,131.904 361.549,132.071 362,134.5C 362.388,133.572 363.055,132.905 364,132.5C 366.428,133.26 368.261,134.76 369.5,137C 369.167,137.333 368.833,137.667 368.5,138C 370.112,138.72 371.612,138.554 373,137.5C 373.388,138.428 374.055,139.095 375,139.5C 376.892,136.61 377.725,136.944 377.5,140.5C 380.731,141.181 384.064,141.348 387.5,141C 386.549,141.718 386.383,142.551 387,143.5C 388.019,142.313 389.186,141.313 390.5,140.5C 391.192,141.025 391.692,141.692 392,142.5C 394.68,142.015 397.347,141.682 400,141.5C 400.903,142.701 402.069,143.535 403.5,144C 402.5,144.333 401.5,144.667 400.5,145C 401.931,145.465 403.097,146.299 404,147.5C 405,147.167 406,146.833 407,146.5C 407.5,147 408,147.5 408.5,148C 403.244,150.782 403.578,151.616 409.5,150.5C 409.5,157.167 409.5,163.833 409.5,170.5C 407.712,170.215 406.045,170.548 404.5,171.5C 405.041,173.523 404.541,175.523 403,177.5C 402.788,174.56 401.288,172.726 398.5,172C 399.711,171.107 399.711,170.274 398.5,169.5C 397.833,170.167 397.167,170.833 396.5,171.5C 396.089,170.738 395.923,169.738 396,168.5C 394.301,169.406 392.467,169.739 390.5,169.5C 389.986,167.488 389.82,165.488 390,163.5C 390.718,164.451 391.551,164.617 392.5,164C 390.751,161.409 388.751,160.742 386.5,162C 388.645,162.743 388.811,163.576 387,164.5C 384.291,165.227 381.291,166.227 378,167.5C 376.16,166.167 375.66,166.334 376.5,168C 374.122,168.974 374.456,169.641 377.5,170C 374.733,173.327 373.066,172.66 372.5,168C 373.308,167.692 373.975,167.192 374.5,166.5C 372.955,165.548 371.288,165.215 369.5,165.5C 369.5,164.5 369.5,163.5 369.5,162.5C 367.857,162.48 366.524,163.147 365.5,164.5C 363.259,164.119 360.926,163.952 358.5,164C 359.696,163.346 359.696,162.846 358.5,162.5C 357.5,163.167 356.5,163.833 355.5,164.5C 352.387,163.286 349.387,161.786 346.5,160C 348.167,159 349.833,158 351.5,157C 349.899,156.727 348.399,156.227 347,155.5C 346.309,157.891 345.309,157.891 344,155.5C 342.092,158.332 341.259,157.999 341.5,154.5C 344.462,154.883 345.462,153.883 344.5,151.5C 342.574,152.061 340.574,152.227 338.5,152C 341.167,153 341.167,154 338.5,155C 340.686,155.604 340.852,156.77 339,158.5C 338.107,157.289 337.274,157.289 336.5,158.5C 337.183,161.461 338.016,161.795 339,159.5C 339.915,160.328 340.581,161.328 341,162.5C 342.297,161.216 343.464,161.383 344.5,163C 342.444,163.311 340.444,163.811 338.5,164.5C 336.898,163.45 336.065,164.117 336,166.5C 334.716,165.428 334.383,164.095 335,162.5C 333.013,164.088 330.846,164.921 328.5,165C 331.207,163.801 331.874,161.967 330.5,159.5C 328.219,158.723 326.052,157.723 324,156.5C 322.853,157.458 321.853,157.125 321,155.5C 320.329,156.252 319.496,156.586 318.5,156.5C 318.817,152.298 318.483,148.298 317.5,144.5C 317.167,144.5 316.833,144.5 316.5,144.5C 316.5,128.5 316.5,112.5 316.5,96.5 Z"/></g>
<g><path style="opacity:1" fill="#716e72" d="M 409.5,170.5 C 409.5,178.833 409.5,187.167 409.5,195.5C 407.857,195.52 406.524,194.853 405.5,193.5C 404.5,194.167 403.5,194.833 402.5,195.5C 401.697,191.705 399.697,191.538 396.5,195C 397.167,195.333 397.833,195.667 398.5,196C 396.697,196.637 395.364,197.803 394.5,199.5C 392.598,197.849 390.598,197.516 388.5,198.5C 386.199,197.731 386.033,196.731 388,195.5C 389.868,196.672 391.702,196.505 393.5,195C 391.285,194.83 389.285,194.163 387.5,193C 390.264,191.456 390.097,190.289 387,189.5C 386,190.167 385,190.833 384,191.5C 383.257,189.559 383.424,187.726 384.5,186C 380.833,184 377.167,184 373.5,186C 375.402,187.651 377.402,187.984 379.5,187C 376.286,190.367 373.619,189.867 371.5,185.5C 370.749,186.376 370.249,187.376 370,188.5C 369.311,187.643 368.478,186.977 367.5,186.5C 366.685,188.276 365.518,188.943 364,188.5C 363.316,187.216 363.483,186.049 364.5,185C 363.551,184.383 362.718,184.549 362,185.5C 359.81,183.718 358.977,181.718 359.5,179.5C 358.5,180 357.5,180.5 356.5,181C 357.696,181.654 357.696,182.154 356.5,182.5C 355.707,182.069 354.873,181.735 354,181.5C 352.235,182.446 350.402,183.446 348.5,184.5C 348.851,182.797 348.184,181.13 346.5,179.5C 345.692,179.808 345.025,180.308 344.5,181C 345.956,181.423 346.456,182.256 346,183.5C 344.538,182.965 342.872,182.965 341,183.5C 338.895,183.211 337.062,182.378 335.5,181C 335.833,180.667 336.167,180.333 336.5,180C 334.443,179.695 332.443,179.695 330.5,180C 331.623,178.956 332.956,178.29 334.5,178C 333.241,177.077 331.908,176.243 330.5,175.5C 331.855,174.325 331.688,173.325 330,172.5C 329.535,173.931 328.701,175.097 327.5,176C 328.731,177.183 328.731,178.349 327.5,179.5C 325.672,178.205 323.672,177.205 321.5,176.5C 322.167,176.167 322.833,175.833 323.5,175.5C 322.624,174.749 321.624,174.249 320.5,174C 321.624,173.751 322.624,173.251 323.5,172.5C 322.609,171.41 321.609,171.41 320.5,172.5C 317.471,168.445 317.971,167.779 322,170.5C 322.265,168.837 321.765,167.337 320.5,166C 321.863,163.871 321.529,163.371 319.5,164.5C 318.52,161.914 318.187,159.247 318.5,156.5C 319.496,156.586 320.329,156.252 321,155.5C 321.853,157.125 322.853,157.458 324,156.5C 326.052,157.723 328.219,158.723 330.5,159.5C 331.874,161.967 331.207,163.801 328.5,165C 330.846,164.921 333.013,164.088 335,162.5C 334.383,164.095 334.716,165.428 336,166.5C 336.065,164.117 336.898,163.45 338.5,164.5C 340.444,163.811 342.444,163.311 344.5,163C 343.464,161.383 342.297,161.216 341,162.5C 340.581,161.328 339.915,160.328 339,159.5C 338.016,161.795 337.183,161.461 336.5,158.5C 337.274,157.289 338.107,157.289 339,158.5C 340.852,156.77 340.686,155.604 338.5,155C 341.167,154 341.167,153 338.5,152C 340.574,152.227 342.574,152.061 344.5,151.5C 345.462,153.883 344.462,154.883 341.5,154.5C 341.259,157.999 342.092,158.332 344,155.5C 345.309,157.891 346.309,157.891 347,155.5C 348.399,156.227 349.899,156.727 351.5,157C 349.833,158 348.167,159 346.5,160C 349.387,161.786 352.387,163.286 355.5,164.5C 356.5,163.833 357.5,163.167 358.5,162.5C 359.696,162.846 359.696,163.346 358.5,164C 360.926,163.952 363.259,164.119 365.5,164.5C 366.524,163.147 367.857,162.48 369.5,162.5C 369.5,163.5 369.5,164.5 369.5,165.5C 371.288,165.215 372.955,165.548 374.5,166.5C 373.975,167.192 373.308,167.692 372.5,168C 373.066,172.66 374.733,173.327 377.5,170C 374.456,169.641 374.122,168.974 376.5,168C 375.66,166.334 376.16,166.167 378,167.5C 381.291,166.227 384.291,165.227 387,164.5C 388.811,163.576 388.645,162.743 386.5,162C 388.751,160.742 390.751,161.409 392.5,164C 391.551,164.617 390.718,164.451 390,163.5C 389.82,165.488 389.986,167.488 390.5,169.5C 392.467,169.739 394.301,169.406 396,168.5C 395.923,169.738 396.089,170.738 396.5,171.5C 397.167,170.833 397.833,170.167 398.5,169.5C 399.711,170.274 399.711,171.107 398.5,172C 401.288,172.726 402.788,174.56 403,177.5C 404.541,175.523 405.041,173.523 404.5,171.5C 406.045,170.548 407.712,170.215 409.5,170.5 Z"/></g>
<g><path style="opacity:1" fill="#7f7d81" d="M 84.5,197.5 C 83.8753,199.527 83.8753,201.36 84.5,203C 82.4534,204.073 80.4534,205.239 78.5,206.5C 76.7145,204.078 75.0478,204.078 73.5,206.5C 70.5124,204.508 67.5124,202.508 64.5,200.5C 66.4233,199.692 68.4233,199.192 70.5,199C 68.1093,198.713 65.7759,198.213 63.5,197.5C 62.2713,201.131 60.2713,201.131 57.5,197.5C 55.8509,198.706 54.3509,200.039 53,201.5C 52.6068,199.801 53.1068,198.301 54.5,197C 54.1667,196.5 53.8333,196 53.5,195.5C 52.3044,195.846 52.3044,196.346 53.5,197C 52.5509,197.617 51.7175,197.451 51,196.5C 50.6667,197.167 50.3333,197.833 50,198.5C 48.623,196.408 46.7897,194.742 44.5,193.5C 44.2635,194.247 43.9302,195.08 43.5,196C 46.6486,196.776 47.1486,198.276 45,200.5C 44.2496,199.874 43.4162,199.374 42.5,199C 43.3402,197.334 42.8402,197.167 41,198.5C 40.6667,197.833 40.3333,197.167 40,196.5C 39.3645,197.966 38.5312,199.3 37.5,200.5C 38.6882,200.307 40.0215,200.807 41.5,202C 39.5975,202.199 38.0975,203.033 37,204.5C 36.2276,203.151 35.0609,202.318 33.5,202C 35.9316,200.913 35.5983,200.413 32.5,200.5C 32.3399,204.236 31.5066,204.236 30,200.5C 28.6371,202.784 27.1371,202.951 25.5,201C 26.1667,200.667 26.8333,200.333 27.5,200C 25.9984,199.417 24.6651,198.584 23.5,197.5C 24.0522,195.997 24.0522,194.331 23.5,192.5C 20.1311,191.481 16.7977,191.814 13.5,193.5C 10.8546,192.892 8.18794,192.392 5.5,192C 4.95349,191.075 4.28683,190.242 3.5,189.5C 2.37765,190.63 1.04432,191.297 -0.5,191.5C -0.5,181.5 -0.5,171.5 -0.5,161.5C 1.4672,161.261 3.30054,161.594 5,162.5C 5.16667,162.167 5.33333,161.833 5.5,161.5C 1.59769,160.317 1.76436,159.317 6,158.5C 10.1247,159.077 13.958,158.077 17.5,155.5C 18.5,155.833 19.1667,156.5 19.5,157.5C 17.8333,158.167 16.1667,158.833 14.5,159.5C 14.2182,163.733 12.7182,164.4 10,161.5C 9.53476,162.931 8.70143,164.097 7.5,165C 9.74674,166.655 12.0801,166.988 14.5,166C 12.7148,167.163 10.7148,167.83 8.5,168C 12.8109,168.225 16.9776,169.058 21,170.5C 22.3261,170.245 23.3261,169.578 24,168.5C 25.0086,169.658 26.3419,170.325 28,170.5C 30.5754,170.91 32.2421,169.91 33,167.5C 35.0764,172.064 38.0764,173.064 42,170.5C 44.4246,172.631 47.258,174.131 50.5,175C 49.3463,175.914 49.513,176.747 51,177.5C 52.487,176.747 52.6537,175.914 51.5,175C 52.9663,174.365 54.2997,173.531 55.5,172.5C 56.914,173.624 58.414,174.624 60,175.5C 62.3938,174.864 64.8938,174.864 67.5,175.5C 67.3322,172.316 68.6655,171.816 71.5,174C 71.0426,174.414 70.7093,174.914 70.5,175.5C 71.6651,176.584 72.9984,177.417 74.5,178C 71.9722,178.669 71.9722,179.502 74.5,180.5C 76.0009,179.248 77.6675,178.248 79.5,177.5C 84.4466,178.435 84.78,177.269 80.5,174C 81.3133,172.115 82.6467,171.449 84.5,172C 84.4062,180.338 84.4062,188.838 84.5,197.5 Z"/></g>
<g><path style="opacity:1" fill="#767477" d="M 317.5,144.5 C 318.483,148.298 318.817,152.298 318.5,156.5C 318.187,159.247 318.52,161.914 319.5,164.5C 321.529,163.371 321.863,163.871 320.5,166C 321.765,167.337 322.265,168.837 322,170.5C 317.971,167.779 317.471,168.445 320.5,172.5C 321.609,171.41 322.609,171.41 323.5,172.5C 322.624,173.251 321.624,173.751 320.5,174C 321.624,174.249 322.624,174.749 323.5,175.5C 322.833,175.833 322.167,176.167 321.5,176.5C 323.672,177.205 325.672,178.205 327.5,179.5C 328.731,178.349 328.731,177.183 327.5,176C 328.701,175.097 329.535,173.931 330,172.5C 331.688,173.325 331.855,174.325 330.5,175.5C 331.908,176.243 333.241,177.077 334.5,178C 332.956,178.29 331.623,178.956 330.5,180C 332.443,179.695 334.443,179.695 336.5,180C 336.167,180.333 335.833,180.667 335.5,181C 337.062,182.378 338.895,183.211 341,183.5C 342.872,182.965 344.538,182.965 346,183.5C 346.456,182.256 345.956,181.423 344.5,181C 345.025,180.308 345.692,179.808 346.5,179.5C 348.184,181.13 348.851,182.797 348.5,184.5C 350.402,183.446 352.235,182.446 354,181.5C 354.873,181.735 355.707,182.069 356.5,182.5C 357.696,182.154 357.696,181.654 356.5,181C 357.5,180.5 358.5,180 359.5,179.5C 358.977,181.718 359.81,183.718 362,185.5C 362.718,184.549 363.551,184.383 364.5,185C 363.483,186.049 363.316,187.216 364,188.5C 365.518,188.943 366.685,188.276 367.5,186.5C 368.478,186.977 369.311,187.643 370,188.5C 370.249,187.376 370.749,186.376 371.5,185.5C 373.619,189.867 376.286,190.367 379.5,187C 377.402,187.984 375.402,187.651 373.5,186C 377.167,184 380.833,184 384.5,186C 383.424,187.726 383.257,189.559 384,191.5C 385,190.833 386,190.167 387,189.5C 390.097,190.289 390.264,191.456 387.5,193C 389.285,194.163 391.285,194.83 393.5,195C 391.702,196.505 389.868,196.672 388,195.5C 386.033,196.731 386.199,197.731 388.5,198.5C 390.598,197.516 392.598,197.849 394.5,199.5C 395.364,197.803 396.697,196.637 398.5,196C 397.833,195.667 397.167,195.333 396.5,195C 399.697,191.538 401.697,191.705 402.5,195.5C 403.5,194.833 404.5,194.167 405.5,193.5C 406.524,194.853 407.857,195.52 409.5,195.5C 409.5,207.167 409.5,218.833 409.5,230.5C 407.876,230.36 406.71,231.027 406,232.5C 405.43,229.156 404.264,228.823 402.5,231.5C 401.833,230.167 401.167,228.833 400.5,227.5C 399.833,228.167 399.167,228.833 398.5,229.5C 397.033,229.277 395.533,228.944 394,228.5C 392.151,231.129 389.985,231.629 387.5,230C 387.833,229.667 388.167,229.333 388.5,229C 384.777,227.408 381.11,227.408 377.5,229C 378.28,230.073 378.113,231.24 377,232.5C 374.551,232.063 372.217,232.063 370,232.5C 369.833,232.167 369.667,231.833 369.5,231.5C 370.5,230.833 371.5,230.167 372.5,229.5C 370.353,226.925 367.686,225.092 364.5,224C 365.167,223.667 365.833,223.333 366.5,223C 365.809,221.933 365.309,220.766 365,219.5C 364.492,221.904 363.325,222.571 361.5,221.5C 361.167,222 360.833,222.5 360.5,223C 361.615,224.393 362.115,225.893 362,227.5C 361.333,226.167 360.667,226.167 360,227.5C 359,225.167 358,222.833 357,220.5C 356.316,221.784 356.483,222.951 357.5,224C 355.833,224.667 354.167,224.667 352.5,224C 353.448,223.517 354.448,223.351 355.5,223.5C 355.5,222.167 355.5,220.833 355.5,219.5C 351.295,219.597 349.795,221.597 351,225.5C 349.758,223.459 347.925,222.293 345.5,222C 349.392,221.869 350.225,220.369 348,217.5C 346.869,218.604 346.035,218.271 345.5,216.5C 347.611,215.152 349.445,215.485 351,217.5C 354.131,216.794 357.298,216.127 360.5,215.5C 361.192,216.025 361.692,216.692 362,217.5C 362.781,216.056 362.614,214.723 361.5,213.5C 360.167,214.167 358.833,214.833 357.5,215.5C 354.639,212.855 351.306,212.022 347.5,213C 350.063,213.763 350.063,214.263 347.5,214.5C 345.912,213.99 344.745,212.99 344,211.5C 341.472,214.585 339.638,214.919 338.5,212.5C 337.614,213.325 337.281,214.325 337.5,215.5C 341.172,216.045 340.838,216.378 336.5,216.5C 336.838,213.989 336.838,211.655 336.5,209.5C 334.632,209.054 332.799,208.721 331,208.5C 330.462,212.003 328.962,212.836 326.5,211C 327.328,210.085 328.328,209.419 329.5,209C 327.094,208.221 325.427,209.054 324.5,211.5C 323.614,210.675 323.281,209.675 323.5,208.5C 321.784,208.629 320.117,208.962 318.5,209.5C 318.829,196.656 318.495,183.989 317.5,171.5C 317.5,162.5 317.5,153.5 317.5,144.5 Z"/></g>
<g><path style="opacity:1" fill="#848286" d="M 84.5,197.5 C 84.8333,197.5 85.1667,197.5 85.5,197.5C 85.5,214.833 85.5,232.167 85.5,249.5C 84.8423,250.398 84.1757,251.398 83.5,252.5C 81.9798,251.15 81.3131,249.817 81.5,248.5C 80.6143,249.325 80.281,250.325 80.5,251.5C 77.5508,251.069 74.8841,249.902 72.5,248C 74.1667,247.667 75.8333,247.333 77.5,247C 76.3508,245.256 75.0175,245.089 73.5,246.5C 72.8441,244.016 70.8441,243.183 67.5,244C 69.8912,245.309 69.8912,246.309 67.5,247C 68.1667,247.333 68.8333,247.667 69.5,248C 67.7818,248.346 66.1151,248.846 64.5,249.5C 62.5477,248.897 60.5477,249.23 58.5,250.5C 53.2768,250.677 53.2768,249.844 58.5,248C 55.3771,247.794 52.3771,247.127 49.5,246C 50.4162,245.626 51.2496,245.126 52,244.5C 54.19,247.249 55.8567,246.915 57,243.5C 57.6667,244.833 58.3333,244.833 59,243.5C 59.4828,244.448 59.6495,245.448 59.5,246.5C 61.854,246.162 64.1873,245.662 66.5,245C 66.0426,244.586 65.7093,244.086 65.5,243.5C 66.8333,242.833 68.1667,242.167 69.5,241.5C 68.9747,240.808 68.3081,240.308 67.5,240C 71.5,239 71.5,238 67.5,237C 68.7932,236.51 70.1266,236.343 71.5,236.5C 72.0522,238.331 72.0522,239.997 71.5,241.5C 72.5,242.833 73.5,242.833 74.5,241.5C 73.0977,240.158 73.4311,239.324 75.5,239C 71.3744,234.26 67.5411,234.427 64,239.5C 62.6667,237.833 61.3333,236.167 60,234.5C 59.6667,236.167 59.3333,237.833 59,239.5C 58.6667,239.167 58.3333,238.833 58,238.5C 57.1612,239.624 55.9945,240.291 54.5,240.5C 51.3476,237.839 47.6809,236.672 43.5,237C 45.7409,238.522 48.0742,239.855 50.5,241C 44.905,244.092 38.905,245.092 32.5,244C 34.7706,243.546 37.1039,242.879 39.5,242C 37.9632,240.89 37.2965,239.39 37.5,237.5C 33.6494,236.971 30.1494,237.638 27,239.5C 20.7875,234.699 21.6208,232.866 29.5,234C 30.1667,233.333 30.8333,232.667 31.5,232C 28.1556,230.67 24.4889,230.003 20.5,230C 22.2205,229.261 23.8872,228.427 25.5,227.5C 25.3333,227.167 25.1667,226.833 25,226.5C 21.7672,226.122 18.6005,226.788 15.5,228.5C 10.8501,227.601 6.18339,227.434 1.5,228C 0.166667,229 0.166667,230 1.5,231C 0.905578,231.464 0.238911,231.631 -0.5,231.5C -0.5,218.167 -0.5,204.833 -0.5,191.5C 1.04432,191.297 2.37765,190.63 3.5,189.5C 4.28683,190.242 4.95349,191.075 5.5,192C 8.18794,192.392 10.8546,192.892 13.5,193.5C 16.7977,191.814 20.1311,191.481 23.5,192.5C 24.0522,194.331 24.0522,195.997 23.5,197.5C 24.6651,198.584 25.9984,199.417 27.5,200C 26.8333,200.333 26.1667,200.667 25.5,201C 27.1371,202.951 28.6371,202.784 30,200.5C 31.5066,204.236 32.3399,204.236 32.5,200.5C 35.5983,200.413 35.9316,200.913 33.5,202C 35.0609,202.318 36.2276,203.151 37,204.5C 38.0975,203.033 39.5975,202.199 41.5,202C 40.0215,200.807 38.6882,200.307 37.5,200.5C 38.5312,199.3 39.3645,197.966 40,196.5C 40.3333,197.167 40.6667,197.833 41,198.5C 42.8402,197.167 43.3402,197.334 42.5,199C 43.4162,199.374 44.2496,199.874 45,200.5C 47.1486,198.276 46.6486,196.776 43.5,196C 43.9302,195.08 44.2635,194.247 44.5,193.5C 46.7897,194.742 48.623,196.408 50,198.5C 50.3333,197.833 50.6667,197.167 51,196.5C 51.7175,197.451 52.5509,197.617 53.5,197C 52.3044,196.346 52.3044,195.846 53.5,195.5C 53.8333,196 54.1667,196.5 54.5,197C 53.1068,198.301 52.6068,199.801 53,201.5C 54.3509,200.039 55.8509,198.706 57.5,197.5C 60.2713,201.131 62.2713,201.131 63.5,197.5C 65.7759,198.213 68.1093,198.713 70.5,199C 68.4233,199.192 66.4233,199.692 64.5,200.5C 67.5124,202.508 70.5124,204.508 73.5,206.5C 75.0478,204.078 76.7145,204.078 78.5,206.5C 80.4534,205.239 82.4534,204.073 84.5,203C 83.8753,201.36 83.8753,199.527 84.5,197.5 Z"/></g>
<g><path style="opacity:1" fill="#7b797d" d="M 409.5,230.5 C 409.5,244.833 409.5,259.167 409.5,273.5C 404.223,274.37 399.223,276.037 394.5,278.5C 392.527,277.669 390.527,277.502 388.5,278C 389.983,280.573 389.483,282.74 387,284.5C 385.635,283.407 385.301,282.074 386,280.5C 386.718,281.451 387.551,281.617 388.5,281C 386.377,279.806 384.043,279.14 381.5,279C 383.667,278.167 385.167,276.667 386,274.5C 388.127,274.548 390.294,274.715 392.5,275C 391.542,273.853 391.875,272.853 393.5,272C 392.004,271.493 390.837,271.993 390,273.5C 389.667,272.833 389.333,272.167 389,271.5C 388.481,272.516 387.647,273.182 386.5,273.5C 384.137,272.319 381.803,272.319 379.5,273.5C 378.304,273.154 378.304,272.654 379.5,272C 376.5,271.667 373.5,271.333 370.5,271C 371.167,270.333 371.833,269.667 372.5,269C 370.023,267.367 368.19,265.2 367,262.5C 364.941,262.446 362.774,262.613 360.5,263C 363.583,262.105 366.583,261.105 369.5,260C 367.382,259.365 365.382,258.531 363.5,257.5C 362.833,257.667 362.167,257.833 361.5,258C 362.624,258.249 363.624,258.749 364.5,259.5C 364.333,259.833 364.167,260.167 364,260.5C 361.063,259.917 357.896,259.25 354.5,258.5C 354.5,259.5 354.5,260.5 354.5,261.5C 350.418,261.656 346.418,261.156 342.5,260C 343.191,258.933 343.691,257.766 344,256.5C 345.204,257.471 345.704,258.471 345.5,259.5C 346.5,259.167 347.167,258.5 347.5,257.5C 346.469,256.3 345.635,254.966 345,253.5C 344.667,253.833 344.333,254.167 344,254.5C 342.601,253.773 341.101,253.273 339.5,253C 340.602,250.609 339.936,250.109 337.5,251.5C 336.396,250.369 336.729,249.535 338.5,249C 337.056,248.219 335.723,248.386 334.5,249.5C 333.52,250.981 332.353,252.315 331,253.5C 326.785,252.731 322.618,251.731 318.5,250.5C 318.5,236.833 318.5,223.167 318.5,209.5C 320.117,208.962 321.784,208.629 323.5,208.5C 323.281,209.675 323.614,210.675 324.5,211.5C 325.427,209.054 327.094,208.221 329.5,209C 328.328,209.419 327.328,210.085 326.5,211C 328.962,212.836 330.462,212.003 331,208.5C 332.799,208.721 334.632,209.054 336.5,209.5C 336.838,211.655 336.838,213.989 336.5,216.5C 340.838,216.378 341.172,216.045 337.5,215.5C 337.281,214.325 337.614,213.325 338.5,212.5C 339.638,214.919 341.472,214.585 344,211.5C 344.745,212.99 345.912,213.99 347.5,214.5C 350.063,214.263 350.063,213.763 347.5,213C 351.306,212.022 354.639,212.855 357.5,215.5C 358.833,214.833 360.167,214.167 361.5,213.5C 362.614,214.723 362.781,216.056 362,217.5C 361.692,216.692 361.192,216.025 360.5,215.5C 357.298,216.127 354.131,216.794 351,217.5C 349.445,215.485 347.611,215.152 345.5,216.5C 346.035,218.271 346.869,218.604 348,217.5C 350.225,220.369 349.392,221.869 345.5,222C 347.925,222.293 349.758,223.459 351,225.5C 349.795,221.597 351.295,219.597 355.5,219.5C 355.5,220.833 355.5,222.167 355.5,223.5C 354.448,223.351 353.448,223.517 352.5,224C 354.167,224.667 355.833,224.667 357.5,224C 356.483,222.951 356.316,221.784 357,220.5C 358,222.833 359,225.167 360,227.5C 360.667,226.167 361.333,226.167 362,227.5C 362.115,225.893 361.615,224.393 360.5,223C 360.833,222.5 361.167,222 361.5,221.5C 363.325,222.571 364.492,221.904 365,219.5C 365.309,220.766 365.809,221.933 366.5,223C 365.833,223.333 365.167,223.667 364.5,224C 367.686,225.092 370.353,226.925 372.5,229.5C 371.5,230.167 370.5,230.833 369.5,231.5C 369.667,231.833 369.833,232.167 370,232.5C 372.217,232.063 374.551,232.063 377,232.5C 378.113,231.24 378.28,230.073 377.5,229C 381.11,227.408 384.777,227.408 388.5,229C 388.167,229.333 387.833,229.667 387.5,230C 389.985,231.629 392.151,231.129 394,228.5C 395.533,228.944 397.033,229.277 398.5,229.5C 399.167,228.833 399.833,228.167 400.5,227.5C 401.167,228.833 401.833,230.167 402.5,231.5C 404.264,228.823 405.43,229.156 406,232.5C 406.71,231.027 407.876,230.36 409.5,230.5 Z"/></g>
<g><path style="opacity:1" fill="#807e82" d="M 409.5,273.5 C 409.5,285.5 409.5,297.5 409.5,309.5C 385.167,309.5 360.833,309.5 336.5,309.5C 336.821,307.952 337.821,307.285 339.5,307.5C 339.513,304.639 340.679,303.639 343,304.5C 343.374,303.584 343.874,302.75 344.5,302C 343.692,301.692 343.025,301.192 342.5,300.5C 345.485,299.272 348.485,298.106 351.5,297C 348.507,296.573 348.007,295.406 350,293.5C 352.844,296.605 356.011,297.105 359.5,295C 355.067,294.579 351.067,293.079 347.5,290.5C 344.296,290.085 341.129,290.752 338,292.5C 337.517,291.552 337.351,290.552 337.5,289.5C 339.346,289.778 340.68,289.111 341.5,287.5C 340.169,286.834 338.669,286.834 337,287.5C 336.167,287.167 335.333,286.833 334.5,286.5C 335.391,285.41 336.391,285.41 337.5,286.5C 339.978,284.562 342.645,282.895 345.5,281.5C 347.071,282.309 348.738,282.643 350.5,282.5C 350.258,287.143 348.424,287.809 345,284.5C 344.51,285.793 344.343,287.127 344.5,288.5C 345.93,288.579 347.264,288.246 348.5,287.5C 349.941,288.304 351.441,288.971 353,289.5C 354.667,288.167 356.333,288.167 358,289.5C 360.346,288.293 361.846,286.96 362.5,285.5C 366.029,288.102 369.529,288.102 373,285.5C 373.333,285.833 373.667,286.167 374,286.5C 374.127,285.223 373.627,284.057 372.5,283C 375.051,280.656 374.384,279.489 370.5,279.5C 369.006,279.709 367.839,280.376 367,281.5C 366.667,280.5 366.333,279.5 366,278.5C 364.992,280.259 363.492,281.426 361.5,282C 363.167,282.333 364.833,282.667 366.5,283C 367.711,283.893 367.711,284.726 366.5,285.5C 363.682,282.987 360.849,282.987 358,285.5C 357.612,284.572 356.945,283.905 356,283.5C 354.838,284.187 353.672,284.353 352.5,284C 354.827,282.768 355.994,281.268 356,279.5C 356.326,280.736 357.326,282.07 359,283.5C 360.631,281.519 360.465,279.519 358.5,277.5C 359.242,276.713 360.075,276.047 361,275.5C 366.355,276.922 366.689,276.256 362,273.5C 360.915,274.293 359.748,274.96 358.5,275.5C 357.033,274.305 355.533,274.305 354,275.5C 352.502,277.559 350.502,278.892 348,279.5C 347.667,279.167 347.333,278.833 347,278.5C 342.595,280.438 338.095,281.105 333.5,280.5C 331.322,279.343 329.322,278.01 327.5,276.5C 328.274,275.289 329.107,275.289 330,276.5C 330.779,275.272 331.779,274.272 333,273.5C 335.678,276.458 338.178,276.625 340.5,274C 336.698,273.622 333.198,272.455 330,270.5C 327.861,271.236 325.861,272.236 324,273.5C 323.5,272.333 322.667,271.5 321.5,271C 322.938,270.781 324.271,270.281 325.5,269.5C 323.709,267.54 321.543,266.207 319,265.5C 318.501,260.511 318.334,255.511 318.5,250.5C 322.618,251.731 326.785,252.731 331,253.5C 332.353,252.315 333.52,250.981 334.5,249.5C 335.723,248.386 337.056,248.219 338.5,249C 336.729,249.535 336.396,250.369 337.5,251.5C 339.936,250.109 340.602,250.609 339.5,253C 341.101,253.273 342.601,253.773 344,254.5C 344.333,254.167 344.667,253.833 345,253.5C 345.635,254.966 346.469,256.3 347.5,257.5C 347.167,258.5 346.5,259.167 345.5,259.5C 345.704,258.471 345.204,257.471 344,256.5C 343.691,257.766 343.191,258.933 342.5,260C 346.418,261.156 350.418,261.656 354.5,261.5C 354.5,260.5 354.5,259.5 354.5,258.5C 357.896,259.25 361.063,259.917 364,260.5C 364.167,260.167 364.333,259.833 364.5,259.5C 363.624,258.749 362.624,258.249 361.5,258C 362.167,257.833 362.833,257.667 363.5,257.5C 365.382,258.531 367.382,259.365 369.5,260C 366.583,261.105 363.583,262.105 360.5,263C 362.774,262.613 364.941,262.446 367,262.5C 368.19,265.2 370.023,267.367 372.5,269C 371.833,269.667 371.167,270.333 370.5,271C 373.5,271.333 376.5,271.667 379.5,272C 378.304,272.654 378.304,273.154 379.5,273.5C 381.803,272.319 384.137,272.319 386.5,273.5C 387.647,273.182 388.481,272.516 389,271.5C 389.333,272.167 389.667,272.833 390,273.5C 390.837,271.993 392.004,271.493 393.5,272C 391.875,272.853 391.542,273.853 392.5,275C 390.294,274.715 388.127,274.548 386,274.5C 385.167,276.667 383.667,278.167 381.5,279C 384.043,279.14 386.377,279.806 388.5,281C 387.551,281.617 386.718,281.451 386,280.5C 385.301,282.074 385.635,283.407 387,284.5C 389.483,282.74 389.983,280.573 388.5,278C 390.527,277.502 392.527,277.669 394.5,278.5C 399.223,276.037 404.223,274.37 409.5,273.5 Z"/></g>
<g><path style="opacity:1" fill="#d8d7d7" d="M 85.5,51.5 C 85.8333,51.5 86.1667,51.5 86.5,51.5C 86.5,120.167 86.5,188.833 86.5,257.5C 86.5,265.167 86.5,272.833 86.5,280.5C 162.335,281.693 238.335,281.693 314.5,280.5C 316.471,271.895 317.138,262.895 316.5,253.5C 316.5,217.167 316.5,180.833 316.5,144.5C 316.833,144.5 317.167,144.5 317.5,144.5C 317.5,153.5 317.5,162.5 317.5,171.5C 317.5,210.5 317.5,249.5 317.5,288.5C 301.167,288.5 284.833,288.5 268.5,288.5C 268.5,291.167 268.5,293.833 268.5,296.5C 261.167,296.5 253.833,296.5 246.5,296.5C 246.5,293.833 246.5,291.167 246.5,288.5C 214.5,288.5 182.5,288.5 150.5,288.5C 150.5,291.5 150.5,294.5 150.5,297.5C 143.167,297.5 135.833,297.5 128.5,297.5C 128.5,294.5 128.5,291.5 128.5,288.5C 114.153,288.396 99.8199,288.73 85.5,289.5C 85.5,276.167 85.5,262.833 85.5,249.5C 85.5,232.167 85.5,214.833 85.5,197.5C 85.5,182.167 85.5,166.833 85.5,151.5C 85.5,139.167 85.5,126.833 85.5,114.5C 85.5,93.5 85.5,72.5 85.5,51.5 Z"/></g>
<g><path style="opacity:1" fill="#e6e6e7" d="M 314.5,280.5 C 238.335,281.693 162.335,281.693 86.5,280.5C 96.122,279.116 105.789,278.116 115.5,277.5C 120.167,278.167 124.833,278.833 129.5,279.5C 141.723,279.642 153.889,278.976 166,277.5C 167.895,277.615 169.562,278.282 171,279.5C 174.299,277.586 177.966,276.586 182,276.5C 189.251,278.539 195.751,277.205 201.5,272.5C 204.167,272.167 206.833,271.833 209.5,271.5C 216.26,272.648 223.093,273.648 230,274.5C 234.737,273.531 239.57,273.197 244.5,273.5C 244.5,274.5 244.5,275.5 244.5,276.5C 247.167,276.5 249.833,276.5 252.5,276.5C 252.579,275.07 252.246,273.736 251.5,272.5C 261.636,269.146 271.969,268.146 282.5,269.5C 282.5,267.833 282.5,266.167 282.5,264.5C 284.199,264.66 285.866,264.494 287.5,264C 286.112,263.111 286.278,262.611 288,262.5C 293.318,264.507 298.818,265.007 304.5,264C 303.112,263.111 303.278,262.611 305,262.5C 305.5,262.667 306,262.833 306.5,263C 305.62,264.356 305.286,265.856 305.5,267.5C 307.167,267.5 308.833,267.5 310.5,267.5C 310.343,268.873 310.51,270.207 311,271.5C 311.667,268.833 312.333,268.833 313,271.5C 313.363,274.544 313.863,277.544 314.5,280.5 Z"/></g>
<g><path style="opacity:1" fill="#eaebe9" d="M 316.5,253.5 C 317.138,262.895 316.471,271.895 314.5,280.5C 313.863,277.544 313.363,274.544 313,271.5C 312.333,268.833 311.667,268.833 311,271.5C 310.51,270.207 310.343,268.873 310.5,267.5C 308.833,267.5 307.167,267.5 305.5,267.5C 305.286,265.856 305.62,264.356 306.5,263C 306,262.833 305.5,262.667 305,262.5C 303.278,262.611 303.112,263.111 304.5,264C 298.818,265.007 293.318,264.507 288,262.5C 286.278,262.611 286.112,263.111 287.5,264C 285.866,264.494 284.199,264.66 282.5,264.5C 282.5,266.167 282.5,267.833 282.5,269.5C 271.969,268.146 261.636,269.146 251.5,272.5C 252.246,273.736 252.579,275.07 252.5,276.5C 249.833,276.5 247.167,276.5 244.5,276.5C 244.5,275.5 244.5,274.5 244.5,273.5C 239.57,273.197 234.737,273.531 230,274.5C 223.093,273.648 216.26,272.648 209.5,271.5C 206.833,271.833 204.167,272.167 201.5,272.5C 195.751,277.205 189.251,278.539 182,276.5C 177.966,276.586 174.299,277.586 171,279.5C 169.562,278.282 167.895,277.615 166,277.5C 153.889,278.976 141.723,279.642 129.5,279.5C 124.833,278.833 120.167,278.167 115.5,277.5C 105.789,278.116 96.122,279.116 86.5,280.5C 86.5,272.833 86.5,265.167 86.5,257.5C 88.621,247.873 90.621,238.373 92.5,229C 92.1081,227.989 91.4415,227.489 90.5,227.5C 91.0253,226.808 91.6919,226.308 92.5,226C 90.6556,223.196 89.9889,220.03 90.5,216.5C 91.5,216.5 92.5,216.5 93.5,216.5C 93.5,213.5 93.5,210.5 93.5,207.5C 94.5,207.5 95.5,207.5 96.5,207.5C 96.5,206.5 96.5,205.5 96.5,204.5C 97.5,204.5 98.5,204.5 99.5,204.5C 99.5,206.167 99.5,207.833 99.5,209.5C 98.0695,209.579 96.7362,209.246 95.5,208.5C 94.3691,210.074 94.2025,211.741 95,213.5C 97.7405,212.718 100.574,212.218 103.5,212C 102.833,211.667 102.167,211.333 101.5,211C 102.729,209.471 104.229,208.304 106,207.5C 106.667,206.5 106.667,205.5 106,204.5C 102.593,204.609 99.0929,204.109 95.5,203C 97.7801,202.788 99.7801,201.955 101.5,200.5C 103.179,202.104 105.179,202.771 107.5,202.5C 107.5,204.167 107.5,205.833 107.5,207.5C 120.817,207.669 120.817,208.169 107.5,209C 106.833,211 106.167,213 105.5,215C 107.061,215.188 107.728,214.355 107.5,212.5C 109.5,212.5 111.5,212.5 113.5,212.5C 113.542,216.009 112.876,219.342 111.5,222.5C 114.888,222.188 117.388,223.521 119,226.5C 121,226.5 123,226.5 125,226.5C 126.269,225.095 126.769,223.429 126.5,221.5C 125.5,221.5 124.5,221.5 123.5,221.5C 122.989,217.97 123.656,214.804 125.5,212C 123.866,211.506 122.199,211.34 120.5,211.5C 120.5,213.167 120.5,214.833 120.5,216.5C 118.473,216.662 116.473,216.495 114.5,216C 115.264,213.931 115.764,211.764 116,209.5C 116.495,211.473 116.662,213.473 116.5,215.5C 117.5,215.5 118.5,215.5 119.5,215.5C 119.693,212.692 120.36,210.025 121.5,207.5C 125.288,206.69 128.622,205.524 131.5,204C 130.572,203.612 129.905,202.945 129.5,202C 130,200.5 130.5,199 131,197.5C 131.667,198.833 132.333,198.833 133,197.5C 133.498,194.518 133.665,191.518 133.5,188.5C 134.833,188.5 136.167,188.5 137.5,188.5C 137.66,186.801 137.494,185.134 137,183.5C 136.111,184.888 135.611,184.722 135.5,183C 137.174,180.826 139.174,178.993 141.5,177.5C 145.639,179.028 149.972,180.028 154.5,180.5C 155.311,181.216 155.978,182.05 156.5,183C 156.389,184.722 155.889,184.888 155,183.5C 154.677,186.141 153.677,188.475 152,190.5C 151.349,192.235 151.515,193.902 152.5,195.5C 154.875,198.351 157.708,199.018 161,197.5C 162.494,201.304 163.328,200.971 163.5,196.5C 166.23,197.766 168.563,197.766 170.5,196.5C 171.48,193.914 171.813,191.247 171.5,188.5C 168.975,187.36 166.308,186.693 163.5,186.5C 163.5,185.5 163.5,184.5 163.5,183.5C 165.124,183.64 166.29,182.973 167,181.5C 167.333,181.833 167.667,182.167 168,182.5C 168.667,181.5 168.667,180.5 168,179.5C 165.421,180.376 162.754,180.376 160,179.5C 155.723,178.941 155.556,178.274 159.5,177.5C 159.5,176.5 159.5,175.5 159.5,174.5C 157.833,174.5 156.167,174.5 154.5,174.5C 153.833,178.5 153.167,178.5 152.5,174.5C 151.5,174.5 150.5,174.5 149.5,174.5C 149.5,175.5 149.5,176.5 149.5,177.5C 147.712,177.785 146.045,177.452 144.5,176.5C 145.711,175.28 145.711,174.113 144.5,173C 145.744,172.544 146.577,173.044 147,174.5C 147.494,172.866 147.66,171.199 147.5,169.5C 149.167,169.5 150.833,169.5 152.5,169.5C 152.715,167.226 153.382,165.059 154.5,163C 153.755,161.415 153.255,159.915 153,158.5C 155.178,158.064 157.678,157.564 160.5,157C 160.167,156.667 159.833,156.333 159.5,156C 160.308,155.692 160.975,155.192 161.5,154.5C 158.881,154.024 156.881,152.691 155.5,150.5C 154.167,149.167 154.167,147.833 155.5,146.5C 157.972,149.055 160.972,150.555 164.5,151C 159.167,151.667 159.167,152.333 164.5,153C 162.954,154.44 162.121,156.273 162,158.5C 161.333,159.833 160.667,159.833 160,158.5C 159.077,159.759 158.243,161.092 157.5,162.5C 156.604,161.494 155.938,161.494 155.5,162.5C 156.213,164.776 156.713,167.109 157,169.5C 159.088,170.308 161.088,171.308 163,172.5C 165.025,170.307 167.525,169.307 170.5,169.5C 170.281,170.675 170.614,171.675 171.5,172.5C 173.416,171.752 175.416,171.752 177.5,172.5C 177.657,171.127 177.49,169.793 177,168.5C 176.667,169.167 176.333,169.833 176,170.5C 174.392,168.233 175.225,167.233 178.5,167.5C 178.663,169.857 178.497,172.19 178,174.5C 175.432,176.689 173.265,179.189 171.5,182C 173.759,181.561 176.092,181.061 178.5,180.5C 178.33,181.822 178.663,182.989 179.5,184C 181.433,184.251 183.266,184.751 185,185.5C 190.651,182.923 196.151,180.256 201.5,177.5C 201.5,176.5 201.5,175.5 201.5,174.5C 204.308,174.307 206.975,173.64 209.5,172.5C 209.33,171.178 209.663,170.011 210.5,169C 207.113,164.511 208.113,161.844 213.5,161C 212.062,160.781 210.729,160.281 209.5,159.5C 210.833,159.167 212.167,158.833 213.5,158.5C 214.711,157.726 214.711,156.893 213.5,156C 214,155.833 214.5,155.667 215,155.5C 216.826,156.01 216.993,156.844 215.5,158C 218.662,158.854 219.829,160.688 219,163.5C 219.741,162.359 220.575,162.359 221.5,163.5C 222.509,166.987 224.842,168.32 228.5,167.5C 228.5,166.5 228.5,165.5 228.5,164.5C 224.5,164.167 224.5,163.833 228.5,163.5C 228.556,160.606 229.39,157.939 231,155.5C 231.333,156.167 231.667,156.833 232,157.5C 233.941,153.446 234.775,153.78 234.5,158.5C 235.978,158.238 237.311,158.571 238.5,159.5C 239.145,162.228 239.979,164.895 241,167.5C 241.333,166.833 241.667,166.167 242,165.5C 242.667,169.5 243.333,169.5 244,165.5C 243.923,172.373 244.757,179.04 246.5,185.5C 248.167,186.833 249.833,186.833 251.5,185.5C 250.439,182.705 251.606,181.372 255,181.5C 258.145,183.786 261.645,185.453 265.5,186.5C 265.5,188.167 265.5,189.833 265.5,191.5C 268.477,192.071 271.31,193.071 274,194.5C 275.601,197.094 275.767,199.761 274.5,202.5C 274.258,200.386 273.258,198.22 271.5,196C 271.833,195.667 272.167,195.333 272.5,195C 270.721,195.979 269.055,195.646 267.5,194C 265.383,192.267 263.883,190.1 263,187.5C 262.667,187.833 262.333,188.167 262,188.5C 260.933,187.809 259.766,187.309 258.5,187C 257.12,185.676 256.786,184.343 257.5,183C 256.207,182.51 254.873,182.343 253.5,182.5C 254.65,184.51 255.483,187.176 256,190.5C 258.5,191.667 261,192.833 263.5,194C 263.043,194.414 262.709,194.914 262.5,195.5C 263.905,197.655 265.238,199.821 266.5,202C 265.376,202.249 264.376,202.749 263.5,203.5C 265.664,204.414 267.664,205.581 269.5,207C 269.167,207.333 268.833,207.667 268.5,208C 269.793,208.49 271.127,208.657 272.5,208.5C 272.5,209.833 272.5,211.167 272.5,212.5C 275.684,211.357 279.017,210.691 282.5,210.5C 282.5,211.5 282.5,212.5 282.5,213.5C 285.999,213.741 286.332,212.908 283.5,211C 286.017,208.749 289.017,207.916 292.5,208.5C 292.5,206.167 292.5,203.833 292.5,201.5C 296.955,200.858 301.288,199.858 305.5,198.5C 305.5,199.5 305.5,200.5 305.5,201.5C 307.124,201.64 308.29,200.973 309,199.5C 310.471,201.872 311.637,201.872 312.5,199.5C 311.62,190.142 311.287,180.475 311.5,170.5C 310.178,170.33 309.011,170.663 308,171.5C 306.796,170.529 306.296,169.529 306.5,168.5C 305.833,169.5 305.167,170.5 304.5,171.5C 303.28,170.289 302.113,170.289 301,171.5C 300.5,171 300,170.5 299.5,170C 300.634,168.984 300.301,168.317 298.5,168C 300.135,167.46 301.468,167.96 302.5,169.5C 303.468,168.511 304.635,167.844 306,167.5C 308.355,168.513 310.689,169.513 313,170.5C 313.964,194.825 314.631,219.158 315,243.5C 315.179,247.025 315.679,250.359 316.5,253.5 Z"/></g>
<g><path style="opacity:1" fill="#ded5b4" d="M 240.5,229.5 C 243.833,229.5 247.167,229.5 250.5,229.5C 250.389,230.117 250.056,230.617 249.5,231C 246.854,231.497 244.187,231.664 241.5,231.5C 241.082,230.778 240.416,230.278 239.5,230C 239.728,229.601 240.062,229.435 240.5,229.5 Z"/></g>
<g><path style="opacity:1" fill="#a19582" d="M 240.5,228.5 C 240.5,228.833 240.5,229.167 240.5,229.5C 240.062,229.435 239.728,229.601 239.5,230C 240.416,230.278 241.082,230.778 241.5,231.5C 237.835,231.498 234.835,230.165 232.5,227.5C 233.265,227.077 234.098,226.743 235,226.5C 236.567,227.856 238.4,228.523 240.5,228.5 Z"/></g>
<g><path style="opacity:1" fill="#cfc8b5" d="M 153.5,231.5 C 150.696,232.638 147.696,232.805 144.5,232C 142.68,231.8 141.347,230.966 140.5,229.5C 144.931,228.848 149.265,229.515 153.5,231.5 Z"/></g>
<g><path style="opacity:1" fill="#797167" d="M 162.5,212.5 C 163.761,216.804 163.428,221.137 161.5,225.5C 159.116,227.885 156.45,229.885 153.5,231.5C 149.265,229.515 144.931,228.848 140.5,229.5C 138.833,228.5 137.5,227.167 136.5,225.5C 137.708,224.766 139.041,224.433 140.5,224.5C 144.9,228.54 146.9,227.874 146.5,222.5C 151.379,221.31 156.213,221.31 161,222.5C 162.199,219.274 162.699,215.941 162.5,212.5 Z"/></g>
<g><path style="opacity:1" fill="#d5d7d4" d="M 259.5,208.5 C 259.444,213.859 259.444,219.193 259.5,224.5C 255.306,231.563 249.306,233.897 241.5,231.5C 244.187,231.664 246.854,231.497 249.5,231C 250.056,230.617 250.389,230.117 250.5,229.5C 254.221,228.264 256.388,225.597 257,221.5C 257.667,217.833 257.667,214.167 257,210.5C 256.148,209.429 255.315,208.429 254.5,207.5C 249.869,202.766 244.202,201.266 237.5,203C 236.255,203.791 234.922,204.291 233.5,204.5C 234.122,202.665 235.456,201.498 237.5,201C 246.68,198.669 254.013,201.169 259.5,208.5 Z"/></g>
<g><path style="opacity:1" fill="#6e6a5e" d="M 254.5,207.5 C 255.315,208.429 256.148,209.429 257,210.5C 257.667,214.167 257.667,217.833 257,221.5C 256.388,225.597 254.221,228.264 250.5,229.5C 247.167,229.5 243.833,229.5 240.5,229.5C 240.5,229.167 240.5,228.833 240.5,228.5C 241.239,228.631 241.906,228.464 242.5,228C 239.761,226.826 237.761,224.993 236.5,222.5C 239.03,218.222 242.864,216.222 248,216.5C 250.498,216.917 252.998,217.251 255.5,217.5C 254.793,214.214 254.46,210.881 254.5,207.5 Z"/></g>
<g><path style="opacity:1" fill="#a09c9b" d="M 259.5,208.5 C 260.787,213.864 260.787,219.198 259.5,224.5C 259.444,219.193 259.444,213.859 259.5,208.5 Z"/></g>
<g><path style="opacity:1" fill="#725f3f" d="M 140.5,221.5 C 140.5,221.833 140.5,222.167 140.5,222.5C 137.941,216.966 138.274,211.299 141.5,205.5C 141.833,206 142.167,206.5 142.5,207C 140.922,211.705 140.255,216.538 140.5,221.5 Z"/></g>
<g><path style="opacity:1" fill="#54493b" d="M 143.5,203.5 C 144.5,203.5 145.5,203.5 146.5,203.5C 146.33,204.822 146.663,205.989 147.5,207C 148.16,206.102 149.493,205.768 151.5,206C 154.32,206.736 156.32,208.402 157.5,211C 152.228,212.488 146.895,213.654 141.5,214.5C 141.802,217.059 141.468,219.393 140.5,221.5C 140.255,216.538 140.922,211.705 142.5,207C 142.167,206.5 141.833,206 141.5,205.5C 138.274,211.299 137.941,216.966 140.5,222.5C 140.5,223.167 140.5,223.833 140.5,224.5C 139.041,224.433 137.708,224.766 136.5,225.5C 135.559,223.95 134.893,222.284 134.5,220.5C 132.563,212.034 135.563,206.367 143.5,203.5 Z"/></g>
<g><path style="opacity:1" fill="#5a5347" d="M 254.5,207.5 C 254.46,210.881 254.793,214.214 255.5,217.5C 252.998,217.251 250.498,216.917 248,216.5C 242.864,216.222 239.03,218.222 236.5,222.5C 237.761,224.993 239.761,226.826 242.5,228C 241.906,228.464 241.239,228.631 240.5,228.5C 238.4,228.523 236.567,227.856 235,226.5C 234.098,226.743 233.265,227.077 232.5,227.5C 226.927,219.568 227.26,211.902 233.5,204.5C 234.922,204.291 236.255,203.791 237.5,203C 244.202,201.266 249.869,202.766 254.5,207.5 Z"/></g>
<g><path style="opacity:1" fill="#7b6743" d="M 231.5,211.5 C 232.222,211.918 232.722,212.584 233,213.5C 233.889,217.152 234.222,220.818 234,224.5C 233.333,223.833 232.667,223.167 232,222.5C 231.501,218.848 231.335,215.182 231.5,211.5 Z"/></g>
<g><path style="opacity:1" fill="#d4d5d4" d="M 161.5,225.5 C 163.428,221.137 163.761,216.804 162.5,212.5C 158.774,203.927 152.441,200.927 143.5,203.5C 135.563,206.367 132.563,212.034 134.5,220.5C 131.305,204.524 137.972,197.69 154.5,200C 165.185,205.086 168.185,213.253 163.5,224.5C 163.043,225.298 162.376,225.631 161.5,225.5 Z"/></g>
<g><path style="opacity:1" fill="#61594e" d="M 143.5,203.5 C 152.441,200.927 158.774,203.927 162.5,212.5C 162.699,215.941 162.199,219.274 161,222.5C 156.213,221.31 151.379,221.31 146.5,222.5C 146.9,227.874 144.9,228.54 140.5,224.5C 140.5,223.833 140.5,223.167 140.5,222.5C 140.5,222.167 140.5,221.833 140.5,221.5C 141.468,219.393 141.802,217.059 141.5,214.5C 146.895,213.654 152.228,212.488 157.5,211C 156.32,208.402 154.32,206.736 151.5,206C 149.493,205.768 148.16,206.102 147.5,207C 146.663,205.989 146.33,204.822 146.5,203.5C 145.5,203.5 144.5,203.5 143.5,203.5 Z"/></g>
<g><path style="opacity:1" fill="#8c8a8e" d="M 85.5,249.5 C 85.5,262.833 85.5,276.167 85.5,289.5C 99.8199,288.73 114.153,288.396 128.5,288.5C 128.5,291.5 128.5,294.5 128.5,297.5C 135.833,297.5 143.167,297.5 150.5,297.5C 151.468,295.393 151.802,293.059 151.5,290.5C 171.136,289.37 190.802,289.203 210.5,290C 209.692,290.308 209.025,290.808 208.5,291.5C 209.628,292.262 210.795,292.929 212,293.5C 212.536,295.869 213.703,297.869 215.5,299.5C 215.911,298.738 216.077,297.738 216,296.5C 218.439,297.862 218.939,299.695 217.5,302C 218,302.5 218.5,303 219,303.5C 219.49,302.207 219.657,300.873 219.5,299.5C 224.159,299.985 225.492,298.152 223.5,294C 225.686,293.396 225.852,292.23 224,290.5C 223.275,292.158 222.108,292.658 220.5,292C 225.534,289.568 230.867,288.901 236.5,290C 237.155,291.487 238.155,292.653 239.5,293.5C 240.604,292.369 240.271,291.535 238.5,291C 239,290.833 239.5,290.667 240,290.5C 241.3,291.707 242.8,292.374 244.5,292.5C 244.78,295.388 243.447,296.888 240.5,297C 243.028,298.316 243.028,299.483 240.5,300.5C 243.573,303.057 246.573,303.39 249.5,301.5C 251.39,302.612 253.39,303.446 255.5,304C 254.643,304.689 253.977,305.522 253.5,306.5C 255.078,307.298 256.744,307.798 258.5,308C 257.944,308.383 257.611,308.883 257.5,309.5C 171.5,309.5 85.5,309.5 -0.5,309.5C -0.5,283.5 -0.5,257.5 -0.5,231.5C 0.238911,231.631 0.905578,231.464 1.5,231C 0.166667,230 0.166667,229 1.5,228C 6.18339,227.434 10.8501,227.601 15.5,228.5C 18.6005,226.788 21.7672,226.122 25,226.5C 25.1667,226.833 25.3333,227.167 25.5,227.5C 23.8872,228.427 22.2205,229.261 20.5,230C 24.4889,230.003 28.1556,230.67 31.5,232C 30.8333,232.667 30.1667,233.333 29.5,234C 21.6208,232.866 20.7875,234.699 27,239.5C 30.1494,237.638 33.6494,236.971 37.5,237.5C 37.2965,239.39 37.9632,240.89 39.5,242C 37.1039,242.879 34.7706,243.546 32.5,244C 38.905,245.092 44.905,244.092 50.5,241C 48.0742,239.855 45.7409,238.522 43.5,237C 47.6809,236.672 51.3476,237.839 54.5,240.5C 55.9945,240.291 57.1612,239.624 58,238.5C 58.3333,238.833 58.6667,239.167 59,239.5C 59.3333,237.833 59.6667,236.167 60,234.5C 61.3333,236.167 62.6667,237.833 64,239.5C 67.5411,234.427 71.3744,234.26 75.5,239C 73.4311,239.324 73.0977,240.158 74.5,241.5C 73.5,242.833 72.5,242.833 71.5,241.5C 72.0522,239.997 72.0522,238.331 71.5,236.5C 70.1266,236.343 68.7932,236.51 67.5,237C 71.5,238 71.5,239 67.5,240C 68.3081,240.308 68.9747,240.808 69.5,241.5C 68.1667,242.167 66.8333,242.833 65.5,243.5C 65.7093,244.086 66.0426,244.586 66.5,245C 64.1873,245.662 61.854,246.162 59.5,246.5C 59.6495,245.448 59.4828,244.448 59,243.5C 58.3333,244.833 57.6667,244.833 57,243.5C 55.8567,246.915 54.19,247.249 52,244.5C 51.2496,245.126 50.4162,245.626 49.5,246C 52.3771,247.127 55.3771,247.794 58.5,248C 53.2768,249.844 53.2768,250.677 58.5,250.5C 60.5477,249.23 62.5477,248.897 64.5,249.5C 66.1151,248.846 67.7818,248.346 69.5,248C 68.8333,247.667 68.1667,247.333 67.5,247C 69.8912,246.309 69.8912,245.309 67.5,244C 70.8441,243.183 72.8441,244.016 73.5,246.5C 75.0175,245.089 76.3508,245.256 77.5,247C 75.8333,247.333 74.1667,247.667 72.5,248C 74.8841,249.902 77.5508,251.069 80.5,251.5C 80.281,250.325 80.6143,249.325 81.5,248.5C 81.3131,249.817 81.9798,251.15 83.5,252.5C 84.1757,251.398 84.8423,250.398 85.5,249.5 Z"/></g>
<g><path style="opacity:1" fill="#858387" d="M 317.5,171.5 C 318.495,183.989 318.829,196.656 318.5,209.5C 318.5,223.167 318.5,236.833 318.5,250.5C 318.334,255.511 318.501,260.511 319,265.5C 321.543,266.207 323.709,267.54 325.5,269.5C 324.271,270.281 322.938,270.781 321.5,271C 322.667,271.5 323.5,272.333 324,273.5C 325.861,272.236 327.861,271.236 330,270.5C 333.198,272.455 336.698,273.622 340.5,274C 338.178,276.625 335.678,276.458 333,273.5C 331.779,274.272 330.779,275.272 330,276.5C 329.107,275.289 328.274,275.289 327.5,276.5C 329.322,278.01 331.322,279.343 333.5,280.5C 338.095,281.105 342.595,280.438 347,278.5C 347.333,278.833 347.667,279.167 348,279.5C 350.502,278.892 352.502,277.559 354,275.5C 355.533,274.305 357.033,274.305 358.5,275.5C 359.748,274.96 360.915,274.293 362,273.5C 366.689,276.256 366.355,276.922 361,275.5C 360.075,276.047 359.242,276.713 358.5,277.5C 360.465,279.519 360.631,281.519 359,283.5C 357.326,282.07 356.326,280.736 356,279.5C 355.994,281.268 354.827,282.768 352.5,284C 353.672,284.353 354.838,284.187 356,283.5C 356.945,283.905 357.612,284.572 358,285.5C 360.849,282.987 363.682,282.987 366.5,285.5C 367.711,284.726 367.711,283.893 366.5,283C 364.833,282.667 363.167,282.333 361.5,282C 363.492,281.426 364.992,280.259 366,278.5C 366.333,279.5 366.667,280.5 367,281.5C 367.839,280.376 369.006,279.709 370.5,279.5C 374.384,279.489 375.051,280.656 372.5,283C 373.627,284.057 374.127,285.223 374,286.5C 373.667,286.167 373.333,285.833 373,285.5C 369.529,288.102 366.029,288.102 362.5,285.5C 361.846,286.96 360.346,288.293 358,289.5C 356.333,288.167 354.667,288.167 353,289.5C 351.441,288.971 349.941,288.304 348.5,287.5C 347.264,288.246 345.93,288.579 344.5,288.5C 344.343,287.127 344.51,285.793 345,284.5C 348.424,287.809 350.258,287.143 350.5,282.5C 348.738,282.643 347.071,282.309 345.5,281.5C 342.645,282.895 339.978,284.562 337.5,286.5C 336.391,285.41 335.391,285.41 334.5,286.5C 335.333,286.833 336.167,287.167 337,287.5C 338.669,286.834 340.169,286.834 341.5,287.5C 340.68,289.111 339.346,289.778 337.5,289.5C 337.351,290.552 337.517,291.552 338,292.5C 341.129,290.752 344.296,290.085 347.5,290.5C 351.067,293.079 355.067,294.579 359.5,295C 356.011,297.105 352.844,296.605 350,293.5C 348.007,295.406 348.507,296.573 351.5,297C 348.485,298.106 345.485,299.272 342.5,300.5C 343.025,301.192 343.692,301.692 344.5,302C 343.874,302.75 343.374,303.584 343,304.5C 340.679,303.639 339.513,304.639 339.5,307.5C 337.821,307.285 336.821,307.952 336.5,309.5C 310.167,309.5 283.833,309.5 257.5,309.5C 257.611,308.883 257.944,308.383 258.5,308C 256.744,307.798 255.078,307.298 253.5,306.5C 253.977,305.522 254.643,304.689 255.5,304C 253.39,303.446 251.39,302.612 249.5,301.5C 246.573,303.39 243.573,303.057 240.5,300.5C 243.028,299.483 243.028,298.316 240.5,297C 243.447,296.888 244.78,295.388 244.5,292.5C 242.8,292.374 241.3,291.707 240,290.5C 239.5,290.667 239,290.833 238.5,291C 240.271,291.535 240.604,292.369 239.5,293.5C 238.155,292.653 237.155,291.487 236.5,290C 230.867,288.901 225.534,289.568 220.5,292C 222.108,292.658 223.275,292.158 224,290.5C 225.852,292.23 225.686,293.396 223.5,294C 225.492,298.152 224.159,299.985 219.5,299.5C 219.657,300.873 219.49,302.207 219,303.5C 218.5,303 218,302.5 217.5,302C 218.939,299.695 218.439,297.862 216,296.5C 216.077,297.738 215.911,298.738 215.5,299.5C 213.703,297.869 212.536,295.869 212,293.5C 210.795,292.929 209.628,292.262 208.5,291.5C 209.025,290.808 209.692,290.308 210.5,290C 190.802,289.203 171.136,289.37 151.5,290.5C 151.802,293.059 151.468,295.393 150.5,297.5C 150.5,294.5 150.5,291.5 150.5,288.5C 182.5,288.5 214.5,288.5 246.5,288.5C 246.5,291.167 246.5,293.833 246.5,296.5C 253.833,296.5 261.167,296.5 268.5,296.5C 268.5,293.833 268.5,291.167 268.5,288.5C 284.833,288.5 301.167,288.5 317.5,288.5C 317.5,249.5 317.5,210.5 317.5,171.5 Z"/></g>
</svg>
