<?xml version="1.0" encoding="UTF-8"?>
<!DOCTYPE svg PUBLIC "-//W3C//DTD SVG 1.1//EN" "http://www.w3.org/Graphics/SVG/1.1/DTD/svg11.dtd">
<svg xmlns="http://www.w3.org/2000/svg" version="1.1" width="170px" height="49px" style="shape-rendering:geometricPrecision; text-rendering:geometricPrecision; image-rendering:optimizeQuality; fill-rule:evenodd; clip-rule:evenodd" xmlns:xlink="http://www.w3.org/1999/xlink">
<g><path style="opacity:0.921" fill="#e42528" d="M -0.5,-0.5 C 7.83333,-0.5 16.1667,-0.5 24.5,-0.5C 24.5,7.5 24.5,15.5 24.5,23.5C 16.1667,23.5 7.83333,23.5 -0.5,23.5C -0.5,15.5 -0.5,7.5 -0.5,-0.5 Z"/></g>
<g><path style="opacity:0.837" fill="#e31e23" d="M 37.5,-0.5 C 40.8333,-0.5 44.1667,-0.5 47.5,-0.5C 49.698,5.58557 52.198,11.5856 55,17.5C 55.4995,11.5092 55.6662,5.50924 55.5,-0.5C 58.8333,-0.5 62.1667,-0.5 65.5,-0.5C 66.9867,2.47344 68.4867,5.47344 70,8.5C 70.498,5.51838 70.6646,2.51838 70.5,-0.5C 73.1667,-0.5 75.8333,-0.5 78.5,-0.5C 78.3359,2.1873 78.5026,4.85397 79,7.5C 80.3532,3.64987 82.8532,0.983199 86.5,-0.5C 93.8333,-0.5 101.167,-0.5 108.5,-0.5C 108.5,2.16667 108.5,4.83333 108.5,7.5C 110.5,7.5 112.5,7.5 114.5,7.5C 114.5,4.83333 114.5,2.16667 114.5,-0.5C 117.167,-0.5 119.833,-0.5 122.5,-0.5C 122.337,1.85684 122.503,4.19018 123,6.5C 124.694,3.64238 126.861,1.30904 129.5,-0.5C 133.833,-0.5 138.167,-0.5 142.5,-0.5C 144.521,1.03244 146.021,3.03244 147,5.5C 147.315,3.41444 147.815,1.41444 148.5,-0.5C 154.167,-0.5 159.833,-0.5 165.5,-0.5C 166.833,0.833333 168.167,2.16667 169.5,3.5C 169.5,5.16667 169.5,6.83333 169.5,8.5C 168.521,9.76527 167.521,11.0986 166.5,12.5C 167.696,14.1446 168.696,15.8113 169.5,17.5C 169.5,19.5 169.5,21.5 169.5,23.5C 166.753,23.8134 164.086,23.48 161.5,22.5C 160.236,19.8747 159.069,17.2081 158,14.5C 157.782,17.4262 157.282,20.2595 156.5,23C 150.298,25.1208 147.132,22.9541 147,16.5C 143.404,23.0754 137.904,25.2421 130.5,23C 126.667,21.8333 124.167,19.3333 123,15.5C 122.503,18.146 122.336,20.8127 122.5,23.5C 119.833,23.5 117.167,23.5 114.5,23.5C 114.5,20.1667 114.5,16.8333 114.5,13.5C 112.5,13.5 110.5,13.5 108.5,13.5C 108.5,16.8333 108.5,20.1667 108.5,23.5C 101.64,23.1405 94.6399,22.9738 87.5,23C 83.7251,21.5579 80.8917,19.0579 79,15.5C 78.5026,18.146 78.3359,20.8127 78.5,23.5C 75.1016,23.8204 71.7683,23.487 68.5,22.5C 67,19.5 65.5,16.5 64,13.5C 63.5017,16.8168 63.335,20.1501 63.5,23.5C 58.1667,23.5 52.8333,23.5 47.5,23.5C 47.8365,20.1702 46.3365,18.5036 43,18.5C 39.9118,18.0863 38.0784,19.4196 37.5,22.5C 34.9135,23.48 32.2469,23.8134 29.5,23.5C 32.6086,15.6957 35.2752,7.69575 37.5,-0.5 Z M 91.5,5.5 C 94.5739,5.87256 97.5739,6.53922 100.5,7.5C 100.5,10.1667 100.5,12.8333 100.5,15.5C 96.1302,17.1568 91.9635,16.8235 88,14.5C 86.6649,10.3919 87.8316,7.3919 91.5,5.5 Z M 134.5,5.5 C 139.572,7.2852 140.739,10.6185 138,15.5C 134.024,17.3815 131.858,16.0482 131.5,11.5C 131.984,9.19917 132.984,7.19917 134.5,5.5 Z M 157.5,5.5 C 160.595,6.11867 160.929,7.11867 158.5,8.5C 157.614,7.67504 157.281,6.67504 157.5,5.5 Z M 42.5,9.5 C 45.3771,11.8455 45.0437,12.6789 41.5,12C 42.2524,11.3292 42.5858,10.4959 42.5,9.5 Z"/></g>
<g><path style="opacity:1" fill="#f6a8a9" d="M 15.5,9.5 C 14.1325,8.6937 12.7992,7.6937 11.5,6.5C 10.4763,7.85318 9.14297,8.51985 7.5,8.5C 7.91753,7.77842 8.5842,7.27842 9.5,7C 8.22963,2.73873 9.72963,1.57207 14,3.5C 14.6838,4.78387 14.5171,5.95054 13.5,7C 14.624,7.24917 15.624,7.74917 16.5,8.5C 16.3764,9.10667 16.0431,9.44001 15.5,9.5 Z"/></g>
<g><path style="opacity:1" fill="#fcdbda" d="M 15.5,9.5 C 14.5,9.5 13.5,9.5 12.5,9.5C 12.5,12.1667 12.5,14.8333 12.5,17.5C 13.5,17.5 14.5,17.5 15.5,17.5C 15.4501,15.4099 16.4501,14.0766 18.5,13.5C 19.4287,14.6888 19.762,16.0222 19.5,17.5C 17.567,17.7286 15.9003,18.5619 14.5,20C 10.7048,20.9792 7.37151,20.1458 4.5,17.5C 3.16667,16.1667 3.16667,14.8333 4.5,13.5C 6.54986,14.0766 7.54986,15.4099 7.5,17.5C 8.5,17.5 9.5,17.5 10.5,17.5C 10.5,14.8333 10.5,12.1667 10.5,9.5C 9.20895,9.73731 8.20895,9.40397 7.5,8.5C 9.14297,8.51985 10.4763,7.85318 11.5,6.5C 12.7992,7.6937 14.1325,8.6937 15.5,9.5 Z"/></g>
<g><path style="opacity:0.587" fill="#000000" d="M 141.5,48.5 C 139.833,48.5 138.167,48.5 136.5,48.5C 134.968,46.2187 133.634,46.2187 132.5,48.5C 129.5,48.5 126.5,48.5 123.5,48.5C 122.5,45.8333 121.5,45.8333 120.5,48.5C 119.167,48.5 117.833,48.5 116.5,48.5C 115.366,46.2187 114.032,46.2187 112.5,48.5C 110.833,48.5 109.167,48.5 107.5,48.5C 105.594,46.0062 103.594,46.0062 101.5,48.5C 99.8333,48.5 98.1667,48.5 96.5,48.5C 95.8333,47.1667 95.1667,47.1667 94.5,48.5C 92.8333,48.5 91.1667,48.5 89.5,48.5C 89.1667,47.1667 88.8333,47.1667 88.5,48.5C 86.8333,48.5 85.1667,48.5 83.5,48.5C 83.1667,47.1667 82.8333,47.1667 82.5,48.5C 80.8333,48.5 79.1667,48.5 77.5,48.5C 76.195,37.9962 75.5284,37.9962 75.5,48.5C 72.5,48.5 69.5,48.5 66.5,48.5C 65.8333,47.1667 65.1667,47.1667 64.5,48.5C 63.1667,48.5 61.8333,48.5 60.5,48.5C 59.2063,46.704 58.2063,44.704 57.5,42.5C 55.9291,43.3094 54.2624,43.6427 52.5,43.5C 52.634,45.2915 52.3007,46.9582 51.5,48.5C 49.8333,48.5 48.1667,48.5 46.5,48.5C 45.5447,42.5907 45.2114,36.5907 45.5,30.5C 49.1817,30.3347 52.8484,30.5014 56.5,31C 58.8633,31.5885 59.8633,33.0885 59.5,35.5C 65.611,35.5446 71.7777,35.2112 78,34.5C 79.5589,35.0294 81.0589,35.696 82.5,36.5C 86.1667,33.8333 89.8333,33.8333 93.5,36.5C 97.3111,33.9309 101.144,33.9309 105,36.5C 108.414,34.0937 111.748,34.0937 115,36.5C 117.944,35.7434 120.944,35.0767 124,34.5C 124.873,34.7355 125.707,35.0688 126.5,35.5C 127.452,33.9547 127.785,32.288 127.5,30.5C 129.5,30.5 131.5,30.5 133.5,30.5C 133.338,32.5273 133.505,34.5273 134,36.5C 138.659,33.8803 142.492,34.8803 145.5,39.5C 145.12,41.0207 144.954,42.6874 145,44.5C 143.968,46.0267 142.801,47.36 141.5,48.5 Z M 137.5,40.5 C 140.001,40.5109 140.168,41.1776 138,42.5C 137.536,41.9056 137.369,41.2389 137.5,40.5 Z"/></g>
<g><path style="opacity:0.283" fill="#000000" d="M 38.5,48.5 C 37.1667,48.5 35.8333,48.5 34.5,48.5C 34.1667,47.1667 33.8333,47.1667 33.5,48.5C 32.8333,48.5 32.1667,48.5 31.5,48.5C 31.1667,47.1667 30.8333,47.1667 30.5,48.5C 29.8333,48.5 29.1667,48.5 28.5,48.5C 28.5,44.8333 28.5,41.1667 28.5,37.5C 32.6369,39.2442 36.8036,40.2442 41,40.5C 40.8932,43.3244 40.0599,45.9911 38.5,48.5 Z"/></g>
</svg>
