<?xml version="1.0" encoding="UTF-8"?>
<!DOCTYPE svg PUBLIC "-//W3C//DTD SVG 1.1//EN" "http://www.w3.org/Graphics/SVG/1.1/DTD/svg11.dtd">
<svg xmlns="http://www.w3.org/2000/svg" version="1.1" width="275px" height="183px" style="shape-rendering:geometricPrecision; text-rendering:geometricPrecision; image-rendering:optimizeQuality; fill-rule:evenodd; clip-rule:evenodd" xmlns:xlink="http://www.w3.org/1999/xlink">
<g><path style="opacity:1" fill="#fefefe" d="M -0.5,-0.5 C 91.1667,-0.5 182.833,-0.5 274.5,-0.5C 274.5,60.5 274.5,121.5 274.5,182.5C 182.833,182.5 91.1667,182.5 -0.5,182.5C -0.5,121.5 -0.5,60.5 -0.5,-0.5 Z"/></g>
<g><path style="opacity:1" fill="#ec0001" d="M 31.5,60.5 C 41.1667,60.5 50.8333,60.5 60.5,60.5C 60.5,70.1667 60.5,79.8333 60.5,89.5C 50.8333,89.5 41.1667,89.5 31.5,89.5C 31.5,79.8333 31.5,70.1667 31.5,60.5 Z"/></g>
<g><path style="opacity:1" fill="#ed2024" d="M 32.5,61.5 C 41.5,61.5 50.5,61.5 59.5,61.5C 59.5,70.5 59.5,79.5 59.5,88.5C 50.5,88.5 41.5,88.5 32.5,88.5C 32.5,79.5 32.5,70.5 32.5,61.5 Z"/></g>
<g><path style="opacity:1" fill="#ed2223" d="M 143.5,61.5 C 147.534,61.5045 151.534,61.8379 155.5,62.5C 155.662,64.5273 155.495,66.5273 155,68.5C 143.773,63.9345 138.773,67.6011 140,79.5C 141.214,81.0488 142.714,82.2155 144.5,83C 148.537,83.6067 152.537,83.44 156.5,82.5C 156.5,84.1667 156.5,85.8333 156.5,87.5C 148.284,89.7998 140.784,88.4665 134,83.5C 128.763,72.3208 131.93,64.9874 143.5,61.5 Z"/></g>
<g><path style="opacity:1" fill="#ed2224" d="M 195.5,61.5 C 209.193,59.3749 215.693,65.0416 215,78.5C 213.715,84.1184 210.215,87.285 204.5,88C 188.713,88.6104 183.547,81.4438 189,66.5C 190.965,64.4497 193.132,62.783 195.5,61.5 Z"/></g>
<g><path style="opacity:1" fill="#ed1d20" d="M 80.5,62.5 C 83.8333,62.5 87.1667,62.5 90.5,62.5C 93.3397,70.8486 96.673,79.0153 100.5,87C 97.8333,87.6667 95.1667,87.6667 92.5,87C 91.2601,83.6083 88.7601,82.1083 85,82.5C 80.8465,81.9211 78.6799,83.5878 78.5,87.5C 75.7531,87.8134 73.0865,87.48 70.5,86.5C 74.0346,78.5571 77.368,70.5571 80.5,62.5 Z"/></g>
<g><path style="opacity:1" fill="#f16263" d="M 112.5,62.5 C 109.5,62.5 106.5,62.5 103.5,62.5C 103.5,70.8333 103.5,79.1667 103.5,87.5C 102.507,79.0161 102.174,70.3494 102.5,61.5C 106.042,61.1872 109.375,61.5206 112.5,62.5 Z"/></g>
<g><path style="opacity:1" fill="#ec1a20" d="M 112.5,62.5 C 115.32,68.1401 118.153,73.8068 121,79.5C 121.499,73.8431 121.666,68.1764 121.5,62.5C 123.5,62.5 125.5,62.5 127.5,62.5C 127.5,70.8333 127.5,79.1667 127.5,87.5C 124.5,87.5 121.5,87.5 118.5,87.5C 115.68,81.8599 112.847,76.1932 110,70.5C 109.501,76.1569 109.334,81.8236 109.5,87.5C 107.5,87.5 105.5,87.5 103.5,87.5C 103.5,79.1667 103.5,70.8333 103.5,62.5C 106.5,62.5 109.5,62.5 112.5,62.5 Z"/></g>
<g><path style="opacity:1" fill="#f26a69" d="M 121.5,62.5 C 123.607,61.5318 125.941,61.1984 128.5,61.5C 128.5,70.5 128.5,79.5 128.5,88.5C 124.958,88.8128 121.625,88.4794 118.5,87.5C 121.5,87.5 124.5,87.5 127.5,87.5C 127.5,79.1667 127.5,70.8333 127.5,62.5C 125.5,62.5 123.5,62.5 121.5,62.5 Z"/></g>
<g><path style="opacity:1" fill="#ec171c" d="M 175.5,71.5 C 176.477,68.7131 176.81,65.7131 176.5,62.5C 178.833,62.5 181.167,62.5 183.5,62.5C 183.5,70.8333 183.5,79.1667 183.5,87.5C 181.167,87.5 178.833,87.5 176.5,87.5C 176.5,83.8333 176.5,80.1667 176.5,76.5C 173.167,76.5 169.833,76.5 166.5,76.5C 166.5,80.1667 166.5,83.8333 166.5,87.5C 164.167,87.5 161.833,87.5 159.5,87.5C 159.5,79.1667 159.5,70.8333 159.5,62.5C 161.833,62.5 164.167,62.5 166.5,62.5C 166.5,65.8333 166.5,69.1667 166.5,72.5C 169.713,72.81 172.713,72.4767 175.5,71.5 Z"/></g>
<g><path style="opacity:1" fill="#ed1e21" d="M 226.5,77.5 C 225.521,80.6248 225.187,83.9581 225.5,87.5C 223.167,87.5 220.833,87.5 218.5,87.5C 218.5,79.1667 218.5,70.8333 218.5,62.5C 224.842,62.3338 231.175,62.5005 237.5,63C 242.932,67.3243 242.599,71.3243 236.5,75C 238.877,78.7896 240.877,82.7896 242.5,87C 239.773,87.8184 237.106,87.6517 234.5,86.5C 233.695,84.0846 232.695,81.7513 231.5,79.5C 230.15,78.0499 228.484,77.3832 226.5,77.5 Z"/></g>
<g><path style="opacity:1" fill="#feeaea" d="M 44.5,63.5 C 49.4928,63.997 50.4928,66.1637 47.5,70C 48.7932,70.49 50.1266,70.6567 51.5,70.5C 51.5,71.5 51.5,72.5 51.5,73.5C 50.1667,73.5 48.8333,73.5 47.5,73.5C 47.5,76.5 47.5,79.5 47.5,82.5C 48.552,82.6495 49.552,82.4828 50.5,82C 51.3333,79.8333 52.8333,78.3333 55,77.5C 55.9201,80.3083 55.0867,82.4749 52.5,84C 45.7731,87.9589 40.4397,86.6255 36.5,80C 36.6667,79.1667 36.8333,78.3333 37,77.5C 39.1667,79.1667 41.3333,80.8333 43.5,82.5C 44.4841,79.5719 44.8174,76.5719 44.5,73.5C 43.1667,73.5 41.8333,73.5 40.5,73.5C 40.5,72.5 40.5,71.5 40.5,70.5C 41.8734,70.6567 43.2068,70.49 44.5,70C 41.9387,67.8441 41.9387,65.6774 44.5,63.5 Z"/></g>
<g><path style="opacity:1" fill="#ee3531" d="M 45.5,65.5 C 47.7602,66.2376 47.9269,67.2376 46,68.5C 44.2716,67.6477 44.105,66.6477 45.5,65.5 Z"/></g>
<g><path style="opacity:1" fill="#fef7f7" d="M 198.5,66.5 C 202.355,65.8454 205.188,67.1788 207,70.5C 207.667,73.5 207.667,76.5 207,79.5C 202.528,85.0734 198.528,84.7401 195,78.5C 193.593,73.556 194.759,69.556 198.5,66.5 Z"/></g>
<g><path style="opacity:1" fill="#f69c9d" d="M 231.5,67.5 C 229.833,67.5 228.167,67.5 226.5,67.5C 226.5,69.1667 226.5,70.8333 226.5,72.5C 225.539,70.7354 225.205,68.7354 225.5,66.5C 227.735,66.2053 229.735,66.5386 231.5,67.5 Z"/></g>
<g><path style="opacity:1" fill="#fffbfb" d="M 231.5,67.5 C 233.344,68.2039 233.844,69.5372 233,71.5C 230.959,72.4231 228.792,72.7564 226.5,72.5C 226.5,70.8333 226.5,69.1667 226.5,67.5C 228.167,67.5 229.833,67.5 231.5,67.5 Z"/></g>
<g><path style="opacity:1" fill="#feeeee" d="M 84.5,67.5 C 86.2714,70.1545 87.6047,73.1545 88.5,76.5C 86.2351,77.6474 83.9018,77.8141 81.5,77C 83.0015,73.9953 84.0015,70.8286 84.5,67.5 Z"/></g>
<g><path style="opacity:1" fill="#f8b8b9" d="M 175.5,71.5 C 172.713,72.4767 169.713,72.81 166.5,72.5C 166.5,69.1667 166.5,65.8333 166.5,62.5C 164.167,62.5 161.833,62.5 159.5,62.5C 159.5,70.8333 159.5,79.1667 159.5,87.5C 161.833,87.5 164.167,87.5 166.5,87.5C 166.5,83.8333 166.5,80.1667 166.5,76.5C 169.833,76.5 173.167,76.5 176.5,76.5C 176.5,80.1667 176.5,83.8333 176.5,87.5C 178.833,87.5 181.167,87.5 183.5,87.5C 181.052,88.4731 178.385,88.8064 175.5,88.5C 175.5,84.8333 175.5,81.1667 175.5,77.5C 172.833,77.5 170.167,77.5 167.5,77.5C 167.5,81.1667 167.5,84.8333 167.5,88.5C 164.5,88.5 161.5,88.5 158.5,88.5C 158.5,79.5 158.5,70.5 158.5,61.5C 161.5,61.5 164.5,61.5 167.5,61.5C 167.5,64.8333 167.5,68.1667 167.5,71.5C 170.167,71.5 172.833,71.5 175.5,71.5 Z"/></g>
<g><path style="opacity:1" fill="#f5999a" d="M 226.5,77.5 C 226.5,81.1667 226.5,84.8333 226.5,88.5C 223.615,88.8064 220.948,88.4731 218.5,87.5C 220.833,87.5 223.167,87.5 225.5,87.5C 225.187,83.9581 225.521,80.6248 226.5,77.5 Z"/></g>
<g><path style="opacity:1" fill="#1e1a1b" d="M 90.5,100.5 C 94.1817,100.335 97.8484,100.501 101.5,101C 105.292,103.053 106.458,106.219 105,110.5C 102.174,112.34 99.0071,113.006 95.5,112.5C 95.5,114.5 95.5,116.5 95.5,118.5C 93.8333,118.5 92.1667,118.5 90.5,118.5C 90.5,112.5 90.5,106.5 90.5,100.5 Z"/></g>
<g><path style="opacity:1" fill="#1d1b1b" d="M 192.5,100.5 C 193.833,100.5 195.167,100.5 196.5,100.5C 196.5,101.5 196.5,102.5 196.5,103.5C 195.167,103.5 193.833,103.5 192.5,103.5C 192.5,102.5 192.5,101.5 192.5,100.5 Z"/></g>
<g><path style="opacity:1" fill="#dfdede" d="M 95.5,104.5 C 99.6759,103.831 101.009,105.331 99.5,109C 98.2068,109.49 96.8734,109.657 95.5,109.5C 95.5,107.833 95.5,106.167 95.5,104.5 Z"/></g>
<g><path style="opacity:1" fill="#1e1b1c" d="M 120.5,109.5 C 120.5,108.5 120.5,107.5 120.5,106.5C 121.833,106.5 123.167,106.5 124.5,106.5C 124.435,106.938 124.601,107.272 125,107.5C 127.747,104.966 130.413,104.966 133,107.5C 133.499,111.152 133.665,114.818 133.5,118.5C 131.833,118.5 130.167,118.5 128.5,118.5C 128.5,115.5 128.5,112.5 128.5,109.5C 127.178,109.33 126.011,109.663 125,110.5C 124.503,113.146 124.336,115.813 124.5,118.5C 123.167,118.5 121.833,118.5 120.5,118.5C 120.5,115.5 120.5,112.5 120.5,109.5 Z"/></g>
<g><path style="opacity:1" fill="#1c191a" d="M 190.5,108.5 C 190.5,111.833 190.5,115.167 190.5,118.5C 189.167,118.5 187.833,118.5 186.5,118.5C 186.664,115.813 186.497,113.146 186,110.5C 184.989,109.663 183.822,109.33 182.5,109.5C 182.5,112.5 182.5,115.5 182.5,118.5C 180.833,118.5 179.167,118.5 177.5,118.5C 177.5,114.5 177.5,110.5 177.5,106.5C 180.551,106.636 183.551,106.302 186.5,105.5C 188.417,105.754 189.751,106.754 190.5,108.5 Z"/></g>
<g><path style="opacity:1" fill="#1c191a" d="M 118.5,108.5 C 118.5,111.833 118.5,115.167 118.5,118.5C 114.6,118.318 110.6,117.984 106.5,117.5C 105.572,116.232 105.405,114.899 106,113.5C 108.886,112.24 111.719,110.907 114.5,109.5C 113.833,109.167 113.167,108.833 112.5,108.5C 110.666,109.754 108.666,110.421 106.5,110.5C 106.297,108.61 106.963,107.11 108.5,106C 111.167,105.333 113.833,105.333 116.5,106C 117.381,106.708 118.047,107.542 118.5,108.5 Z"/></g>
<g><path style="opacity:1" fill="#1d191a" d="M 137.5,105.5 C 141.007,104.994 144.174,105.66 147,107.5C 147.499,111.152 147.665,114.818 147.5,118.5C 143.6,118.318 139.6,117.984 135.5,117.5C 134.167,116.167 134.167,114.833 135.5,113.5C 138.167,112.167 140.833,110.833 143.5,109.5C 142.833,109.167 142.167,108.833 141.5,108.5C 139.666,109.754 137.666,110.421 135.5,110.5C 135.392,108.486 136.058,106.82 137.5,105.5 Z"/></g>
<g><path style="opacity:1" fill="#1c1919" d="M 151.5,105.5 C 154.649,105.211 157.649,105.711 160.5,107C 161.741,108.487 161.241,109.32 159,109.5C 157.159,108.875 155.326,108.708 153.5,109C 155.731,110.147 158.065,111.147 160.5,112C 162.078,116.769 160.245,118.936 155,118.5C 151.406,119.283 149.573,117.95 149.5,114.5C 151.827,114.247 153.827,114.914 155.5,116.5C 156.308,116.192 156.975,115.692 157.5,115C 155.321,113.858 152.988,113.025 150.5,112.5C 149.154,109.9 149.488,107.567 151.5,105.5 Z"/></g>
<g><path style="opacity:1" fill="#1e1b1c" d="M 166.5,105.5 C 176.351,105.71 178.684,109.876 173.5,118C 165.729,120.219 162.229,117.386 163,109.5C 163.69,107.65 164.856,106.316 166.5,105.5 Z"/></g>
<g><path style="opacity:1" fill="#1f1c1d" d="M 198.5,115.5 C 197.167,113.5 197.167,111.5 198.5,109.5C 201.229,105.184 204.895,104.351 209.5,107C 210.337,108.011 210.67,109.178 210.5,110.5C 208.173,110.753 206.173,110.086 204.5,108.5C 202.554,110.044 202.054,112.044 203,114.5C 203.561,115.022 204.228,115.355 205,115.5C 206.597,114.115 208.43,113.449 210.5,113.5C 210.703,115.39 210.037,116.89 208.5,118C 205.833,118.667 203.167,118.667 200.5,118C 199.619,117.292 198.953,116.458 198.5,115.5 Z"/></g>
<g><path style="opacity:1" fill="#f3f3f3" d="M 168.5,108.5 C 169.496,108.414 170.329,108.748 171,109.5C 171.495,111.473 171.662,113.473 171.5,115.5C 170.167,115.5 168.833,115.5 167.5,115.5C 167.298,113.05 167.631,110.717 168.5,108.5 Z"/></g>
<g><path style="opacity:1" fill="#b1b1b1" d="M 198.5,109.5 C 197.167,111.5 197.167,113.5 198.5,115.5C 197.833,116.5 197.167,117.5 196.5,118.5C 196.5,114.5 196.5,110.5 196.5,106.5C 195.167,106.5 193.833,106.5 192.5,106.5C 192.5,110.5 192.5,114.5 192.5,118.5C 191.833,118.5 191.167,118.5 190.5,118.5C 190.5,115.167 190.5,111.833 190.5,108.5C 191.404,107.791 191.737,106.791 191.5,105.5C 193.5,105.5 195.5,105.5 197.5,105.5C 197.232,107.099 197.566,108.432 198.5,109.5 Z"/></g>
<g><path style="opacity:1" fill="#191617" d="M 196.5,118.5 C 195.167,118.5 193.833,118.5 192.5,118.5C 192.5,114.5 192.5,110.5 192.5,106.5C 193.833,106.5 195.167,106.5 196.5,106.5C 196.5,110.5 196.5,114.5 196.5,118.5 Z"/></g>
<g><path style="opacity:1" fill="#605e5e" d="M 68.5,109.5 C 70.0481,109.821 70.7148,110.821 70.5,112.5C 71.8333,112.5 73.1667,112.5 74.5,112.5C 74.7989,114.604 74.4656,116.604 73.5,118.5C 73.1928,117.113 73.1928,115.446 73.5,113.5C 72.5,113.5 71.5,113.5 70.5,113.5C 70.2865,115.144 70.6198,116.644 71.5,118C 70.552,118.483 69.552,118.649 68.5,118.5C 68.5,115.5 68.5,112.5 68.5,109.5 Z"/></g>
<g><path style="opacity:1" fill="#a4a3a3" d="M 124.5,106.5 C 123.167,106.5 121.833,106.5 120.5,106.5C 120.5,107.5 120.5,108.5 120.5,109.5C 119.833,112.5 119.167,115.5 118.5,118.5C 118.5,115.167 118.5,111.833 118.5,108.5C 119.404,107.791 119.737,106.791 119.5,105.5C 121.415,105.216 123.081,105.549 124.5,106.5 Z"/></g>
<g><path style="opacity:1" fill="#dcdcdc" d="M 113.5,112.5 C 115.035,115.33 114.035,116.663 110.5,116.5C 110.5,115.5 110.5,114.5 110.5,113.5C 111.791,113.737 112.791,113.404 113.5,112.5 Z"/></g>
<g><path style="opacity:1" fill="#dbdbdb" d="M 142.5,112.5 C 144.035,115.33 143.035,116.663 139.5,116.5C 139.5,115.5 139.5,114.5 139.5,113.5C 140.791,113.737 141.791,113.404 142.5,112.5 Z"/></g>
<g><path style="opacity:1" fill="#4b4949" d="M 75.5,113.5 C 75.56,112.957 75.8933,112.624 76.5,112.5C 77.2432,113.908 78.0766,115.241 79,116.5C 79.2896,114.956 79.9563,113.623 81,112.5C 80.2972,121.303 78.4638,121.636 75.5,113.5 Z"/></g>
</svg>
