<?xml version="1.0" standalone="no"?>
<!DOCTYPE svg PUBLIC "-//W3C//DTD SVG 20010904//EN"
 "http://www.w3.org/TR/2001/REC-SVG-20010904/DTD/svg10.dtd">
<svg version="1.0" xmlns="http://www.w3.org/2000/svg"
 width="500.000000pt" height="514.000000pt" viewBox="0 0 500.000000 514.000000"
 preserveAspectRatio="xMidYMid meet">

<g transform="translate(0.000000,514.000000) scale(0.100000,-0.100000)"
fill="#000000" stroke="none">
<path d="M1570 3110 l0 -400 125 0 125 0 0 290 0 290 555 0 555 0 0 110 0 110
-680 0 -680 0 0 -400z"/>
<path d="M2975 2702 c-3 -8 -5 -58 -5 -113 l0 -99 125 0 125 0 0 54 c0 29 3
80 6 112 l6 59 -126 0 c-95 0 -127 -3 -131 -13z"/>
<path d="M4510 2603 l0 -113 130 0 130 0 0 88 c0 139 9 130 -136 134 l-124 3
0 -112z"/>
<path d="M1570 2060 l0 -430 705 0 705 0 0 110 0 110 -580 0 -580 0 0 320 0
320 -125 0 -125 0 0 -430z"/>
</g>
</svg>
